<svg width="16" height="14" viewBox="0 0 16 14" fill="none" xmlns="http://www.w3.org/2000/svg">
<path d="M2.01038 1.70515C2.01038 2.2603 1.56034 2.71033 1.00519 2.71033C0.450039 2.71033 0 2.2603 0 1.70515C0 1.14999 0.450039 0.699951 1.00519 0.699951C1.56034 0.699951 2.01038 1.14999 2.01038 1.70515Z" fill="#3C3F54"/>
<path d="M14.7789 2.49693H4.74847C4.33506 2.49693 4 2.16187 4 1.74846C4 1.33506 4.33506 1 4.74847 1H14.7787C15.1921 1 15.5271 1.33506 15.5271 1.74846C15.5271 2.16187 15.1923 2.49693 14.7789 2.49693Z" fill="#3C3F54"/>
<path d="M4.74847 7.74693H14.7789C15.1923 7.74693 15.5274 7.41187 15.5271 6.99846C15.5271 6.58506 15.1921 6.25 14.7787 6.25H4.74847C4.33506 6.25 4 6.58506 4 6.99846C4 7.41187 4.33506 7.74693 4.74847 7.74693Z" fill="#3C3F54"/>
<path d="M4.74847 12.9969H14.7789C15.1923 12.9969 15.5271 12.6619 15.5271 12.2485C15.5271 11.8351 15.1921 11.5 14.7787 11.5H4.74847C4.33506 11.5 4 11.8351 4 12.2485C4 12.6619 4.33506 12.9969 4.74847 12.9969Z" fill="#3C3F54"/>
<path d="M1.00519 8.01038C1.56034 8.01038 2.01038 7.56034 2.01038 7.00519C2.01038 6.45004 1.56034 6 1.00519 6C0.450039 6 0 6.45004 0 7.00519C0 7.56034 0.450039 8.01038 1.00519 8.01038Z" fill="#3C3F54"/>
<path d="M2.01038 12.2552C2.01038 12.8103 1.56034 13.2604 1.00519 13.2604C0.450039 13.2604 0 12.8103 0 12.2552C0 11.7 0.450039 11.25 1.00519 11.25C1.56034 11.25 2.01038 11.7 2.01038 12.2552Z" fill="#3C3F54"/>
</svg>
