<svg width="16" height="16" viewBox="0 0 16 16" fill="none" xmlns="http://www.w3.org/2000/svg">
<path d="M1.20249 0.206314C0.927403 -0.0687715 0.4814 -0.0687715 0.206314 0.206314C-0.0687714 0.4814 -0.0687714 0.927403 0.206314 1.20249L7.00383 8L0.206314 14.7975C-0.0687715 15.0726 -0.0687715 15.5186 0.206314 15.7937C0.4814 16.0688 0.927402 16.0688 1.20249 15.7937L8 8.99617L14.7975 15.7937C15.0726 16.0687 15.5186 16.0687 15.7937 15.7937C16.0687 15.5186 16.0687 15.0726 15.7937 14.7975L8.99617 8L15.7937 1.20251C16.0687 0.927429 16.0687 0.481427 15.7937 0.20634C15.5186 -0.0687457 15.0726 -0.0687457 14.7975 0.20634L8 7.00383L1.20249 0.206314Z" fill="#3C3F54"/>
</svg>
