<svg width="17" height="15" viewBox="0 0 17 15" fill="none" xmlns="http://www.w3.org/2000/svg">
<path fill-rule="evenodd" clip-rule="evenodd" d="M5.6731 9.37512L5.67566 9.375H14.1743C14.3835 9.375 14.5675 9.23621 14.625 9.03503L16.5 2.47253C16.5404 2.33105 16.5121 2.17896 16.4236 2.06152C16.335 1.94409 16.1964 1.875 16.0493 1.875H4.59204L4.25696 0.367065C4.20923 0.152588 4.01904 0 3.79932 0H0.986817C0.727906 0 0.518067 0.209839 0.518067 0.46875C0.518067 0.727661 0.727906 0.9375 0.986817 0.9375H3.42334L5.11572 8.55347C4.61755 8.77002 4.26807 9.26672 4.26807 9.84375C4.26807 10.6191 4.89893 11.25 5.67432 11.25H6.61182C5.83643 11.25 5.20557 11.8809 5.20557 12.6562C5.20557 13.4316 5.83643 14.0625 6.61182 14.0625C7.38721 14.0625 8.01807 13.4316 8.01807 12.6562C8.01807 11.8809 7.38721 11.25 6.61182 11.25H13.2368C12.4614 11.25 11.8306 11.8809 11.8306 12.6562C11.8306 13.4316 12.4614 14.0625 13.2368 14.0625C14.0122 14.0625 14.6431 13.4316 14.6431 12.6562C14.6431 11.8809 14.0122 11.25 13.2368 11.25H14.1743C14.4332 11.25 14.6431 11.0402 14.6431 10.7812C14.6431 10.5223 14.4332 10.3125 14.1743 10.3125H5.67432C5.41589 10.3125 5.20557 10.1022 5.20557 9.84375C5.20557 9.58569 5.41516 9.37573 5.6731 9.37512ZM15.4279 2.8125L13.8207 8.4375H6.05029L4.80029 2.8125H15.4279ZM6.61182 12.1875C6.87024 12.1875 7.08057 12.3978 7.08057 12.6562C7.08057 12.9147 6.87024 13.125 6.61182 13.125C6.35339 13.125 6.14307 12.9147 6.14307 12.6562C6.14307 12.3978 6.35339 12.1875 6.61182 12.1875ZM13.7056 12.6562C13.7056 12.3978 13.4952 12.1875 13.2368 12.1875C12.9784 12.1875 12.7681 12.3978 12.7681 12.6562C12.7681 12.9147 12.9784 13.125 13.2368 13.125C13.4952 13.125 13.7056 12.9147 13.7056 12.6562Z" fill="#7F878B"/>
</svg>
