<svg width="14" height="14" viewBox="0 0 14 14" fill="none" xmlns="http://www.w3.org/2000/svg">
<path d="M11.9497 9.05023C11.1873 8.28784 10.2798 7.72343 9.28966 7.38177C10.3501 6.65139 11.0468 5.42905 11.0468 4.04688C11.0468 1.81543 9.23136 0 6.99992 0C4.76848 0 2.95304 1.81543 2.95304 4.04688C2.95304 5.42905 3.64973 6.65139 4.71021 7.38177C3.72009 7.72343 2.8126 8.28784 2.05018 9.05023C0.857671 10.2428 0.148394 11.7898 0.0207852 13.4536C-0.00231111 13.7548 0.244761 14 0.546792 14C0.848822 14 1.09101 13.7544 1.11872 13.4536C1.39532 10.452 3.92739 8.09375 6.99992 8.09375C10.0724 8.09375 12.6045 10.452 12.8811 13.4536C12.9088 13.7544 13.151 14 13.453 14C13.7551 14 14.0021 13.7548 13.979 13.4536C13.8514 11.7898 13.1422 10.2428 11.9497 9.05023ZM6.99992 7C5.37157 7 4.04679 5.67525 4.04679 4.04688C4.04679 2.4185 5.37157 1.09375 6.99992 1.09375C8.62826 1.09375 9.95304 2.4185 9.95304 4.04688C9.95304 5.67525 8.62826 7 6.99992 7Z" fill="#7F878B"/>
</svg>
