<svg width="147" height="39" viewBox="0 0 147 39" fill="none" xmlns="http://www.w3.org/2000/svg">
<path d="M78.5201 31.5146L78.2305 31.8731C78.5523 32.2316 79.035 32.4923 79.7108 32.4923C80.7406 32.4923 81.1267 31.9057 81.1267 31.3517C81.1267 30.5253 80.4012 30.3301 79.7678 30.1598C79.2772 30.0278 78.8419 29.9107 78.8419 29.5266C78.8419 29.1682 79.1959 28.9074 79.6464 28.9074C80.0648 28.9074 80.4831 29.0378 80.7727 29.3637L81.0624 29.0052C80.7084 28.6467 80.2579 28.4512 79.6786 28.4512C78.9385 28.4512 78.3592 28.8748 78.3592 29.5266C78.3592 30.2845 79.0275 30.4705 79.6412 30.6413C80.1623 30.7863 80.644 30.9204 80.644 31.3843C80.644 31.7102 80.4188 32.0687 79.743 32.0687C79.1959 32.0687 78.7776 31.8079 78.5201 31.5146Z" fill="#848AA5"/>
<path d="M56.0904 32.4272L55.2537 29.2659L54.417 32.4272H53.9021L52.808 28.5163H53.355L54.2239 31.7754L55.0928 28.5163H55.4789L56.3478 31.7754L57.1845 28.5163H57.7316L56.6374 32.4272H56.0904Z" fill="#848AA5"/>
<path d="M60.1129 32.4272V28.5163H60.5956V32.4272H60.1129Z" fill="#848AA5"/>
<path d="M63.3632 28.5163V32.3946H65.648V31.9709H63.8459V28.5163H63.3632Z" fill="#848AA5"/>
<path fill-rule="evenodd" clip-rule="evenodd" d="M68.158 32.4272V28.5163H69.4774C70.6681 28.5163 71.4404 29.3637 71.4404 30.4717C71.4404 31.5798 70.6681 32.4272 69.4774 32.4272H68.158ZM70.9577 30.4717C70.9577 29.6244 70.4429 28.94 69.4774 28.94H68.6408V31.9709H69.4774C70.4107 31.9709 70.9577 31.3191 70.9577 30.4717Z" fill="#848AA5"/>
<path d="M83.7334 28.5163H84.2161V32.4272H83.7334V28.5163Z" fill="#848AA5"/>
<path fill-rule="evenodd" clip-rule="evenodd" d="M86.9835 28.5163V32.3946H88.7213C89.4293 32.3946 89.8476 31.9709 89.8476 31.3517C89.8476 30.8954 89.5258 30.4718 89.1075 30.4066C89.4614 30.3414 89.7833 30.0155 89.7833 29.5266C89.7833 28.94 89.3649 28.5163 88.6891 28.5163H86.9835ZM88.5926 28.9726C89.0431 28.9726 89.2684 29.2333 89.2684 29.5918C89.2684 29.9503 89.0431 30.211 88.5926 30.2436H87.4341V28.9726H88.5926ZM88.6248 30.6347C89.0753 30.6347 89.3327 30.9606 89.3327 31.3191C89.3327 31.7428 89.0753 31.9709 88.6248 31.9709H87.4341V30.6347H88.6248Z" fill="#848AA5"/>
<path d="M92.4864 32.3946V28.5163H94.9965V28.94H92.9369V30.211H94.9321V30.6347H92.9369V31.9709H94.9965V32.3946H92.4864Z" fill="#848AA5"/>
<path fill-rule="evenodd" clip-rule="evenodd" d="M98.8581 30.8628L99.8557 32.4272H100.403L99.373 30.8302C99.8879 30.7651 100.371 30.4066 100.371 29.6896C100.371 28.9726 99.8557 28.5163 99.1477 28.5163H97.6031V32.4272H98.0858V30.8628H98.8581ZM99.1156 28.94C99.5661 28.94 99.8879 29.2659 99.8879 29.6896C99.8879 30.1458 99.5661 30.4392 99.1156 30.4392H98.118V28.94H99.1156Z" fill="#848AA5"/>
<path d="M103.009 28.5163H103.492V32.4272H103.009V28.5163Z" fill="#848AA5"/>
<path fill-rule="evenodd" clip-rule="evenodd" d="M108.641 31.5472L108.995 32.4272H109.542L107.997 28.5163H107.418L105.873 32.4272H106.356L106.71 31.5472H108.641ZM106.903 31.091L107.708 29.0052L108.544 31.091H106.903Z" fill="#848AA5"/>
<path d="M0 19C0 8.506 8.39908 0 18.7612 0C29.1232 0 37.5223 8.506 37.5545 19C37.5545 20.2384 37.4258 21.4443 37.2005 22.6175C37.0396 23.4322 36.8465 24.2144 36.5891 24.964L31.5046 20.0103C31.1828 19.717 30.7001 19.6518 30.3139 19.9125H30.2817C29.8956 20.1406 29.7347 20.6295 29.8956 21.0532V21.0858C30.153 21.7702 29.3163 22.3242 28.8014 21.8353L21.3356 14.1441C21.0138 13.8834 20.5954 13.7204 20.1771 13.8182C19.5335 13.9811 19.1151 14.5678 19.1795 15.187L19.2761 18.1852C19.3404 19.1629 18.5359 19.9777 17.5705 19.9125L11.4562 18.4134C11.0701 18.3156 10.6517 18.4786 10.4264 18.8045C10.1368 19.2607 10.2655 19.8473 10.7161 20.1081L17.12 24.1166C17.5383 24.3122 17.2809 24.9966 16.8303 24.8336L6.95096 21.3139C6.17863 21.0532 5.30976 21.2161 4.66616 21.7376L2.70315 23.4648C4.63398 30.6672 11.1022 35.9468 18.7933 35.9468C25.873 35.9468 31.9229 31.4494 34.3365 25.1269L35.8811 26.7564C32.9527 33.4048 26.3879 38.0326 18.7612 38.0326C10.4586 38.0326 3.4433 32.5575 0.965412 24.964C0.675788 24.0515 0.450525 23.1063 0.289623 22.1612L2.12391 20.4991L8.59216 14.7307C9.10705 14.2744 9.91156 14.2419 10.4586 14.6655L12.6147 16.295C13.1618 16.7513 13.9985 16.7187 14.5134 16.1973L19.8875 9.97256C20.4989 9.25557 21.6252 9.28816 22.1723 10.0703L27.5464 17.5986C28.0613 18.1852 28.9623 18.2504 29.5416 17.6964L29.9599 17.3705C30.5392 16.8816 31.3759 16.9468 31.9229 17.4683L35.3341 20.8576C35.3984 20.2384 35.4306 19.6192 35.4306 19C35.4306 9.64666 27.9648 2.08576 18.729 2.08576C9.87938 2.08576 2.67097 9.06003 2.09173 17.8593L0.0321804 19.6192C0.0321804 19.5214 0.0241353 19.4155 0.0160902 19.3096C0.0080451 19.2037 0 19.0978 0 19Z" fill="#3C3F54"/>
<path d="M64.747 10.8851C64.747 10.4288 64.6826 10.0051 64.5861 9.67925C64.5324 9.66838 64.4752 9.6539 64.4132 9.63821C64.2893 9.60682 64.1463 9.57061 63.9746 9.54889C63.7494 9.5163 63.4919 9.48371 63.2667 9.48371C63.0092 9.48371 62.784 9.5163 62.5587 9.54889C62.3013 9.58148 62.1082 9.61407 61.9473 9.67925C61.8507 10.0377 61.7864 10.4288 61.7864 10.8851C61.7864 11.3413 61.8507 11.765 61.9473 12.0909C62.1404 12.1561 62.3334 12.2213 62.5587 12.2539C62.784 12.2864 63.0414 12.319 63.2667 12.319C63.5241 12.319 63.7494 12.2864 63.9746 12.2539C64.2321 12.2213 64.4252 12.1561 64.5861 12.0909C64.6826 11.7324 64.747 11.3413 64.747 10.8851Z" fill="#3C3F54"/>
<path d="M64.5539 24.4751V14.1767C64.1999 14.0789 63.7815 14.0463 63.2988 14.0463C62.8161 14.0463 62.3978 14.1115 62.0438 14.1767V24.4751C62.3978 24.5729 62.8161 24.6055 63.2988 24.6055C63.7815 24.6055 64.1999 24.5403 64.5539 24.4751Z" fill="#3C3F54"/>
<path d="M55.0285 24.4751C54.8032 24.5403 54.5136 24.5729 54.224 24.6055C53.9344 24.6381 53.6447 24.6381 53.3229 24.6381C53.0011 24.6381 52.7115 24.6381 52.4219 24.6055C52.1322 24.5729 51.8748 24.5403 51.6174 24.4751L46.8868 9.77702C47.0799 9.74443 47.273 9.71184 47.5305 9.67925C47.7879 9.64666 48.0453 9.64666 48.3028 9.64666C48.5602 9.64666 48.8177 9.64666 49.0751 9.67925C49.2467 9.70097 49.3897 9.7227 49.5328 9.74442C49.6043 9.75528 49.6758 9.76616 49.7509 9.77702L53.3229 21.9983H53.4516L57.088 9.77702C57.2811 9.74443 57.4742 9.71184 57.7316 9.67925C57.9891 9.64666 58.2465 9.64666 58.504 9.64666C58.7614 9.64666 59.0189 9.64666 59.2763 9.67925C59.5337 9.71184 59.7268 9.74443 59.9199 9.80961L55.0285 24.4751Z" fill="#3C3F54"/>
<path d="M71.0865 21.4117C71.0865 21.8679 71.183 22.1612 71.3439 22.3242C71.537 22.4871 71.8266 22.5523 72.2128 22.5523C72.4702 22.5523 72.7921 22.5523 73.1139 22.5197C73.4357 22.5197 73.6931 22.4871 73.854 22.4545C73.8862 22.6175 73.9184 22.7804 73.9505 22.976C73.9505 23.1715 73.9505 23.3671 73.9184 23.5626C73.8862 23.7581 73.854 23.9537 73.7575 24.1492C73.6931 24.3122 73.5966 24.4751 73.4678 24.5729C73.3069 24.6381 73.0817 24.6707 72.7921 24.7033C72.5024 24.7358 72.1807 24.7358 71.7945 24.7358C71.3762 24.7358 70.9578 24.7033 70.5716 24.6381C70.1854 24.5729 69.8315 24.4099 69.5097 24.2144C69.22 23.9863 68.9626 23.6604 68.7695 23.2693C68.5764 22.8456 68.5121 22.2916 68.5121 21.6072V15.4151H66.9674C66.8709 15.1218 66.8387 14.8285 66.8387 14.47C66.8387 14.1115 66.8709 13.8182 66.9674 13.5249H68.5121V10.7547C68.673 10.6569 68.8661 10.5918 69.1235 10.5592C69.3488 10.494 69.574 10.4614 69.8315 10.4614C70.0567 10.4288 70.282 10.4288 70.5073 10.4288C70.7325 10.4288 70.8934 10.4614 71.0543 10.494V13.5249H74.0471C74.1436 13.8182 74.208 14.1115 74.208 14.47C74.208 14.8285 74.1436 15.1218 74.0471 15.4151H71.0543V21.4117H71.0865Z" fill="#3C3F54"/>
<path fill-rule="evenodd" clip-rule="evenodd" d="M86.5009 22.3894C86.5974 22.7153 86.6296 23.1063 86.5974 23.53C86.533 23.9537 86.4043 24.3122 86.1791 24.5729C85.8894 24.6707 85.5998 24.7359 85.2458 24.7359C84.924 24.7359 84.57 24.6707 84.2804 24.5729C83.9586 24.4751 83.669 24.3122 83.4437 24.0841C83.1863 23.8559 82.9932 23.5626 82.8967 23.2367C82.5749 23.6604 82.1243 24.0189 81.6095 24.3122C81.0624 24.6055 80.3544 24.7684 79.5177 24.7684C78.6488 24.7684 78.0052 24.6381 77.5225 24.41C77.0398 24.1818 76.6859 23.8559 76.4284 23.4974C76.171 23.1389 76.0422 22.7479 75.9779 22.3242C75.9135 21.9005 75.8813 21.542 75.8813 21.1835C75.8813 20.6295 75.9135 20.1732 76.0101 19.7822C76.0744 19.3911 76.2353 19.0652 76.4284 18.8045C76.6215 18.5437 76.9111 18.3482 77.2973 18.1853C77.6834 18.0223 78.134 17.9245 78.7454 17.8594C79.0028 17.8268 79.3246 17.7942 79.6786 17.7942H80.7728C81.1589 17.7942 81.5129 17.8268 81.8669 17.8919C82.2209 17.9245 82.5427 17.9897 82.8323 18.0875V17.1424C82.8323 16.8165 82.8001 16.5232 82.7358 16.3276C82.6714 16.0995 82.5749 15.9365 82.414 15.8388C82.2531 15.7084 82.0922 15.6432 81.8669 15.578C81.6416 15.5455 81.3842 15.5129 81.0624 15.4803C80.2579 15.4477 79.5177 15.4477 78.8098 15.4803C78.1018 15.5129 77.4904 15.5455 77.0077 15.6106C76.8146 15.3825 76.718 15.0566 76.6537 14.6655C76.5893 14.2744 76.5571 13.916 76.5893 13.5901C76.9111 13.5249 77.2329 13.4923 77.6191 13.4597C78.0052 13.4271 78.3914 13.3945 78.8098 13.3619C79.0028 13.3456 79.204 13.3375 79.4051 13.3293C79.6062 13.3212 79.8074 13.313 80.0004 13.2967C80.1977 13.2967 80.3865 13.2882 80.5713 13.2799C80.7482 13.272 80.9214 13.2642 81.0946 13.2642C81.7382 13.2642 82.2852 13.2967 82.8323 13.3945C83.3794 13.4923 83.7977 13.6552 84.1839 13.916C84.57 14.1767 84.8597 14.5678 85.0527 15.0566C85.278 15.5455 85.3745 16.1973 85.3745 17.012V22.2916C85.4711 22.3568 85.5676 22.422 85.6964 22.422C85.8251 22.4545 85.9538 22.4545 86.0825 22.4545C86.1515 22.4545 86.2112 22.4452 86.2667 22.4365C86.3147 22.429 86.3595 22.422 86.4043 22.422C86.4365 22.3894 86.5009 22.3894 86.5009 22.3894ZM80.1292 22.7479C80.7728 22.7153 81.3198 22.6175 81.7382 22.422C82.1565 22.2264 82.5105 21.9983 82.8001 21.705L82.8001 19.3585C82.2208 19.3585 81.6094 19.3585 80.9658 19.3911C80.3222 19.4237 79.8073 19.4889 79.3568 19.554C79.1959 19.5866 79.035 19.6192 78.9385 19.6518C78.8419 19.6844 78.7454 19.7496 78.681 19.8799C78.6167 19.9777 78.5523 20.1407 78.5201 20.3362C78.488 20.5317 78.488 20.825 78.488 21.1509C78.488 21.7376 78.6167 22.1612 78.8419 22.422C79.035 22.6501 79.4855 22.7805 80.1292 22.7479Z" fill="#3C3F54"/>
<path d="M93.1944 11.6998C92.6152 11.6998 92.1968 11.7976 92.0037 12.0257C91.7785 12.2539 91.6819 12.7101 91.6819 13.3619V14.5026H94.2885C94.3851 14.7959 94.4494 15.0892 94.4494 15.4477C94.4494 15.8062 94.3851 16.0995 94.2885 16.3928H91.6819V24.5077C91.2636 24.6055 90.8452 24.6707 90.4269 24.6707C89.9763 24.6707 89.558 24.6055 89.1718 24.5077V16.3928H87.7237C87.6272 16.0995 87.5628 15.8062 87.5628 15.4477C87.5628 15.0892 87.6272 14.7959 87.7237 14.5026H89.1718V13.2316C89.1718 12.7101 89.2362 12.2213 89.3649 11.765C89.4937 11.3088 89.7189 10.9177 90.0085 10.5918C90.2982 10.2659 90.6521 10.0052 91.1027 9.8422C91.5532 9.64666 92.0681 9.58148 92.6795 9.58148C92.8726 9.58148 93.0657 9.58148 93.3231 9.61407C93.5546 9.61407 93.76 9.64041 93.9861 9.66941L94.0633 9.67925C94.3207 9.71184 94.546 9.74443 94.7712 9.80961C94.9126 9.83007 95.0414 9.86337 95.1574 9.89339C95.2262 9.91119 95.2906 9.92784 95.3505 9.93997C95.4148 10.2659 95.4148 10.5918 95.3827 10.9503C95.3183 11.2762 95.2218 11.6021 95.0609 11.8954L94.192 11.7976C93.8058 11.6998 93.5162 11.6998 93.1944 11.6998Z" fill="#3C3F54"/>
<path fill-rule="evenodd" clip-rule="evenodd" d="M100.982 13.2642C101.98 13.2642 102.816 13.3945 103.492 13.6226C104.168 13.8834 104.715 14.2419 105.133 14.6981C105.552 15.187 105.841 15.7736 106.002 16.458C106.163 17.175 106.26 17.9571 106.26 18.8371C106.26 19.8148 106.163 20.6621 106.002 21.4117C105.841 22.1286 105.519 22.7479 105.133 23.2367C104.715 23.7256 104.168 24.084 103.492 24.3448C102.816 24.6055 101.98 24.7033 100.982 24.7033C99.9845 24.7033 99.1156 24.5729 98.4398 24.3448C97.764 24.084 97.2169 23.7256 96.7986 23.2367C96.3803 22.7479 96.0906 22.1286 95.9297 21.4117C95.7688 20.6947 95.6723 19.8148 95.6723 18.8371C95.6723 17.9571 95.7688 17.1424 95.9297 16.458C96.0906 15.741 96.3803 15.1544 96.7986 14.6981C97.2169 14.2093 97.764 13.8508 98.4398 13.6226C99.1478 13.3619 99.9845 13.2642 100.982 13.2642ZM100.982 15.3825C100.435 15.3825 99.9845 15.4477 99.6305 15.578C99.2765 15.7084 99.019 15.9039 98.7938 16.1973C98.6007 16.4906 98.4398 16.8491 98.3754 17.3053C98.3111 17.7616 98.2789 18.283 98.2789 18.8696C98.2789 19.5214 98.3111 20.1081 98.3754 20.5969C98.4398 21.0858 98.5685 21.4768 98.7938 21.7702C98.9869 22.0635 99.2765 22.2916 99.6305 22.4545C99.9845 22.5849 100.435 22.6827 100.982 22.6827C101.529 22.6827 102.012 22.6175 102.334 22.4545C102.688 22.2916 102.945 22.0635 103.138 21.7702C103.331 21.4768 103.46 21.0858 103.524 20.5969C103.589 20.1081 103.621 19.554 103.621 18.9022C103.621 18.283 103.589 17.7616 103.524 17.3379C103.46 16.9142 103.331 16.5232 103.138 16.2624C102.945 15.9691 102.688 15.7736 102.334 15.6432C102.012 15.4477 101.561 15.3825 100.982 15.3825Z" fill="#3C3F54"/>
<path d="M115.946 13.3293C115.978 13.4597 116.01 13.6226 116.042 13.8508C116.075 14.0789 116.075 14.307 116.042 14.5678C116.01 14.8285 115.978 15.0566 115.946 15.2847C115.882 15.5129 115.817 15.6758 115.753 15.8062C115.528 15.7736 115.238 15.7736 114.916 15.7736C114.594 15.7736 114.24 15.7736 113.854 15.8062C113.468 15.8388 113.082 15.8714 112.631 15.9039C112.492 15.9257 112.352 15.9438 112.213 15.9619C111.934 15.9981 111.655 16.0343 111.376 16.0995V24.5077C111.215 24.5403 111.022 24.5729 110.797 24.6055C110.572 24.6381 110.347 24.6381 110.121 24.6381C109.896 24.6381 109.671 24.6381 109.446 24.6055C109.22 24.5729 109.027 24.5403 108.866 24.5077V13.6226C108.963 13.5575 109.092 13.4923 109.285 13.4271C109.478 13.3619 109.671 13.3293 109.864 13.3293C110.057 13.2967 110.25 13.2967 110.443 13.2967C110.636 13.2967 110.797 13.3293 110.894 13.3619L111.344 14.6981C111.73 14.3722 112.149 14.1115 112.599 13.916C113.018 13.7204 113.468 13.5575 113.886 13.4597C114.305 13.3619 114.691 13.2967 115.077 13.2642C115.367 13.2642 115.656 13.2642 115.946 13.3293Z" fill="#3C3F54"/>
<path fill-rule="evenodd" clip-rule="evenodd" d="M122.189 13.2642C123.251 13.2642 124.088 13.3945 124.763 13.6552C125.439 13.916 125.954 14.307 126.34 14.7959C126.726 15.2847 126.952 15.8714 127.048 16.5883C127.145 17.3053 127.145 18.0875 127.016 18.9674C126.984 19.1955 126.919 19.3911 126.823 19.5214C126.726 19.6518 126.501 19.7496 126.179 19.8148C125.954 19.8473 125.568 19.8799 125.085 19.9125C124.602 19.9451 124.055 19.9451 123.444 19.9451C122.833 19.9451 122.253 19.9451 121.642 19.9125C121.03 19.8799 120.451 19.8148 119.968 19.7496C119.968 20.3036 120.033 20.7925 120.129 21.1509C120.226 21.542 120.355 21.8353 120.58 22.0309C120.773 22.259 121.063 22.422 121.384 22.4871C121.706 22.5849 122.157 22.6175 122.672 22.6175C122.993 22.6175 123.38 22.6175 123.766 22.5849C124.152 22.5523 124.538 22.5197 124.892 22.4871C125.246 22.4545 125.568 22.422 125.825 22.3894C126.083 22.3568 126.276 22.3242 126.372 22.2916C126.501 22.4871 126.63 22.7804 126.726 23.1715C126.823 23.5626 126.823 23.9211 126.759 24.2796C126.598 24.3448 126.34 24.41 126.018 24.4751C125.824 24.5146 125.617 24.5421 125.391 24.5722C125.244 24.5917 125.089 24.6124 124.924 24.6381C124.538 24.6707 124.12 24.7032 123.702 24.7358L123.701 24.7359C123.283 24.7684 122.897 24.7684 122.543 24.7684C121.578 24.7684 120.741 24.6707 120.097 24.4751C119.421 24.2796 118.874 23.9211 118.456 23.4648C118.038 23.0086 117.748 22.3894 117.555 21.6398C117.362 20.8902 117.298 19.9777 117.298 18.8696C117.298 17.9571 117.362 17.175 117.523 16.458C117.652 15.7736 117.909 15.187 118.295 14.6981C118.649 14.2419 119.164 13.8834 119.775 13.6226C120.387 13.3619 121.191 13.2642 122.189 13.2642ZM124.538 18.1853C124.57 17.5335 124.57 17.0446 124.474 16.6535C124.377 16.2624 124.248 16.0017 124.055 15.8062C123.862 15.6106 123.605 15.4803 123.315 15.4151C123.026 15.3499 122.672 15.3173 122.318 15.3173C121.835 15.3173 121.417 15.3499 121.127 15.4477C120.805 15.5129 120.58 15.6758 120.387 15.8714C120.226 16.0995 120.097 16.3928 120.033 16.7513C119.968 17.1424 119.936 17.5986 119.904 18.2178L124.538 18.1853Z" fill="#3C3F54"/>
<path d="M133.71 13.2642C134.16 13.2642 134.643 13.2967 135.093 13.3293C135.576 13.3619 135.994 13.3945 136.38 13.4597C136.536 13.486 136.687 13.5069 136.83 13.5269C137.041 13.5564 137.237 13.5838 137.41 13.6226C137.7 13.6878 137.893 13.753 137.989 13.7856C138.022 13.916 138.022 14.0789 138.022 14.2744C138.022 14.4452 137.997 14.591 137.97 14.7555L137.969 14.7582C137.965 14.7812 137.961 14.8046 137.957 14.8285C137.925 15.024 137.893 15.187 137.829 15.3499C137.764 15.5129 137.7 15.6432 137.636 15.7736C137.603 15.7736 137.475 15.741 137.217 15.6759C136.96 15.6107 136.638 15.578 136.284 15.5455C135.898 15.5129 135.512 15.4803 135.029 15.4151C134.578 15.3825 134.128 15.3499 133.71 15.3499C132.969 15.3499 132.454 15.4151 132.165 15.5455C131.875 15.6758 131.746 15.9365 131.746 16.3276C131.746 16.5883 131.811 16.7839 131.94 16.9468C132.068 17.1098 132.261 17.2401 132.519 17.3705C132.575 17.3918 132.633 17.4147 132.693 17.4385C132.907 17.5236 133.15 17.62 133.452 17.6964C133.806 17.7942 134.257 17.9245 134.739 18.0875L134.81 18.1101C135.391 18.2957 135.884 18.4536 136.348 18.6415C136.799 18.8045 137.185 19.0326 137.507 19.2933C137.829 19.554 138.054 19.8473 138.215 20.2058C138.376 20.5643 138.44 21.0206 138.44 21.5746C138.44 22.6827 138.054 23.4974 137.314 23.9863C136.574 24.5077 135.383 24.7684 133.742 24.7684C133.259 24.7684 132.776 24.7359 132.294 24.7033C131.811 24.6707 131.36 24.6381 130.974 24.5729C130.809 24.5472 130.654 24.5266 130.508 24.507C130.282 24.477 130.075 24.4494 129.88 24.41C129.558 24.3448 129.333 24.2796 129.172 24.2144C129.14 23.9211 129.14 23.5626 129.172 23.1715C129.236 22.7804 129.333 22.4545 129.462 22.259C129.623 22.2916 129.848 22.3242 130.17 22.3568C130.437 22.3839 130.727 22.4334 131.038 22.4868C131.102 22.4977 131.166 22.5087 131.232 22.5197C131.618 22.5849 132.068 22.6175 132.519 22.6501L132.609 22.6566C133.025 22.6869 133.416 22.7153 133.806 22.7153C134.611 22.7153 135.158 22.6175 135.479 22.4545C135.769 22.2916 135.93 21.9983 135.93 21.6398C135.93 21.4117 135.866 21.2161 135.737 21.0858C135.608 20.9554 135.447 20.825 135.19 20.6947C134.965 20.5969 134.643 20.4666 134.289 20.3688C133.935 20.271 133.516 20.1407 133.002 19.9777C132.39 19.7822 131.843 19.5866 131.36 19.3911C130.878 19.1955 130.491 18.9674 130.17 18.7067C129.848 18.446 129.59 18.1201 129.43 17.7616C129.269 17.4031 129.172 16.9468 129.172 16.458C129.172 15.3499 129.526 14.5352 130.266 14.0463C131.071 13.4923 132.197 13.2642 133.71 13.2642Z" fill="#3C3F54"/>
<path d="M143.846 21.4117C143.846 21.8679 143.943 22.1612 144.104 22.3242C144.297 22.4871 144.587 22.5523 144.973 22.5523C145.23 22.5523 145.552 22.5523 145.874 22.5197C146.196 22.5197 146.453 22.4871 146.614 22.4545C146.646 22.6175 146.678 22.7804 146.71 22.976C146.71 23.1715 146.71 23.3671 146.678 23.5626C146.646 23.7581 146.614 23.9537 146.517 24.1492C146.453 24.3122 146.356 24.4751 146.228 24.5729C146.067 24.6381 145.842 24.6707 145.552 24.7033C145.262 24.7358 144.941 24.7358 144.554 24.7358C144.136 24.7358 143.718 24.7033 143.331 24.6381C142.945 24.5729 142.591 24.4099 142.27 24.2144C141.98 23.9863 141.722 23.6604 141.529 23.2693C141.336 22.8456 141.272 22.2916 141.272 21.6072V15.4151H139.727C139.631 15.1218 139.599 14.8285 139.599 14.47C139.599 14.1115 139.631 13.8182 139.727 13.5249H141.272V10.7547C141.433 10.6569 141.626 10.5918 141.883 10.5592C142.109 10.494 142.334 10.4614 142.591 10.4614C142.817 10.4288 143.042 10.4288 143.267 10.4288C143.492 10.4288 143.653 10.4614 143.814 10.494V13.5249H146.807C146.903 13.8182 146.968 14.1115 146.968 14.47C146.968 14.8285 146.903 15.1218 146.807 15.4151H143.846V21.4117Z" fill="#3C3F54"/>
</svg>
