<svg width="100" height="26" viewBox="0 0 100 26" fill="none" xmlns="http://www.w3.org/2000/svg">
<path d="M53.4151 21.5134L53.2181 21.7573C53.437 22.0012 53.7653 22.1785 54.2251 22.1785C54.9256 22.1785 55.1883 21.7795 55.1883 21.4026C55.1883 20.8404 54.6947 20.7076 54.2639 20.5918C53.9301 20.502 53.634 20.4223 53.634 20.1611C53.634 19.9172 53.8748 19.7398 54.1813 19.7398C54.4659 19.7398 54.7505 19.8285 54.9475 20.0502L55.1445 19.8063C54.9037 19.5625 54.5972 19.4294 54.2032 19.4294C53.6997 19.4294 53.3056 19.7177 53.3056 20.1611C53.3056 20.6766 53.7602 20.8031 54.1777 20.9193C54.5322 21.018 54.8599 21.1092 54.8599 21.4248C54.8599 21.6465 54.7067 21.8903 54.247 21.8903C53.8748 21.8903 53.5902 21.713 53.4151 21.5134Z" fill="#848AA5"/>
<path d="M38.1568 22.1342L37.5876 19.9837L37.0184 22.1342H36.6681L35.9238 19.4738H36.296L36.887 21.6908L37.4781 19.4738H37.7408L38.3319 21.6908L38.9011 19.4738H39.2732L38.5289 22.1342H38.1568Z" fill="#848AA5"/>
<path d="M40.8932 22.1342V19.4738H41.2216V22.1342H40.8932Z" fill="#848AA5"/>
<path d="M43.1042 19.4738V22.112H44.6585V21.8238H43.4326V19.4738H43.1042Z" fill="#848AA5"/>
<path fill-rule="evenodd" clip-rule="evenodd" d="M46.366 22.1342V19.4738H47.2636C48.0736 19.4738 48.599 20.0502 48.599 20.804C48.599 21.5578 48.0736 22.1342 47.2636 22.1342H46.366ZM48.2706 20.804C48.2706 20.2276 47.9203 19.762 47.2636 19.762H46.6944V21.8238H47.2636C47.8984 21.8238 48.2706 21.3804 48.2706 20.804Z" fill="#848AA5"/>
<path d="M56.9615 19.4738H57.2899V22.1342H56.9615V19.4738Z" fill="#848AA5"/>
<path fill-rule="evenodd" clip-rule="evenodd" d="M59.1725 19.4738V22.112H60.3547C60.8363 22.112 61.1209 21.8238 61.1209 21.4026C61.1209 21.0922 60.9019 20.804 60.6173 20.7596C60.8582 20.7153 61.0771 20.4936 61.0771 20.1611C61.0771 19.762 60.7925 19.4738 60.3328 19.4738H59.1725ZM60.2671 19.7842C60.5736 19.7842 60.7268 19.9615 60.7268 20.2054C60.7268 20.4493 60.5736 20.6266 60.2671 20.6488H59.479V19.7842H60.2671ZM60.289 20.9148C60.5955 20.9148 60.7706 21.1365 60.7706 21.3804C60.7706 21.6686 60.5955 21.8238 60.289 21.8238H59.479V20.9148H60.289Z" fill="#848AA5"/>
<path d="M62.916 22.112V19.4738H64.6235V19.762H63.2224V20.6266H64.5797V20.9148H63.2224V21.8238H64.6235V22.112H62.916Z" fill="#848AA5"/>
<path fill-rule="evenodd" clip-rule="evenodd" d="M67.2505 21.07L67.9291 22.1342H68.3012L67.6007 21.0479C67.951 21.0035 68.2793 20.7596 68.2793 20.2719C68.2793 19.7842 67.9291 19.4738 67.4475 19.4738H66.3967V22.1342H66.7251V21.07H67.2505ZM67.4256 19.762C67.7321 19.762 67.951 19.9837 67.951 20.2719C67.951 20.5823 67.7321 20.7818 67.4256 20.7818H66.747V19.762H67.4256Z" fill="#848AA5"/>
<path d="M70.0745 19.4738H70.4028V22.1342H70.0745V19.4738Z" fill="#848AA5"/>
<path fill-rule="evenodd" clip-rule="evenodd" d="M73.9054 21.5356L74.1462 22.1342H74.5184L73.4676 19.4738H73.0736L72.0228 22.1342H72.3512L72.592 21.5356H73.9054ZM72.7233 21.2252L73.2706 19.8063L73.8398 21.2252H72.7233Z" fill="#848AA5"/>
<path d="M0 13.0001C0 5.86135 5.71366 0.0749512 12.7627 0.0749512C19.8117 0.0749512 25.5254 5.86135 25.5473 13.0001C25.5473 13.8426 25.4597 14.6629 25.3065 15.461C25.197 16.0153 25.0657 16.5473 24.8905 17.0572L21.4317 13.6874C21.2128 13.4879 20.8844 13.4435 20.6217 13.6209H20.5998C20.3371 13.7761 20.2277 14.1086 20.3371 14.3968V14.419C20.5123 14.8846 19.9431 15.2615 19.5928 14.9289L14.514 9.69678C14.2951 9.51941 14.0105 9.40856 13.7259 9.47507C13.2881 9.58593 13.0035 9.98499 13.0473 10.4062L13.113 12.4459C13.1567 13.111 12.6095 13.6652 11.9527 13.6209L7.79334 12.6011C7.53065 12.5345 7.24606 12.6454 7.09282 12.8671C6.8958 13.1775 6.98336 13.5765 7.28984 13.7539L11.6462 16.4808C11.9308 16.6138 11.7557 17.0794 11.4492 16.9686L4.72855 14.5742C4.20315 14.3968 3.61208 14.5077 3.17426 14.8624L1.83888 16.0374C3.15236 20.937 7.55254 24.5286 12.7846 24.5286C17.6007 24.5286 21.7163 21.4691 23.3581 17.1681L24.4089 18.2766C22.4168 22.7993 17.951 25.9475 12.7627 25.9475C7.11471 25.9475 2.34238 22.2229 0.656743 17.0572C0.45972 16.4365 0.30648 15.7936 0.197023 15.1506L1.44483 14.0199L5.84501 10.0958C6.19527 9.78546 6.74256 9.76329 7.11471 10.0515L8.58144 11.16C8.95359 11.4704 9.52277 11.4482 9.87303 11.0935L13.5289 6.859C13.9448 6.37126 14.711 6.39343 15.0832 6.92551L18.7391 12.0468C19.0893 12.4459 19.7023 12.4902 20.0963 12.1133L20.3809 11.8916C20.775 11.5591 21.3441 11.6034 21.7163 11.9581L24.0368 14.2638C24.0806 13.8426 24.1024 13.4214 24.1024 13.0001C24.1024 6.6373 19.0236 1.49384 12.7408 1.49384C6.72067 1.49384 1.81699 6.23824 1.42294 12.2242L0.0218914 13.4214C0.0218914 13.3548 0.0164186 13.2828 0.0109457 13.2107C0.00547285 13.1387 0 13.0666 0 13.0001Z" fill="#3C3F54"/>
<path d="M44.0456 7.47977C44.0456 7.16938 44.0018 6.88117 43.9361 6.65947C43.8996 6.65208 43.8607 6.64223 43.8185 6.63155C43.7342 6.61021 43.6369 6.58557 43.5202 6.57079C43.3669 6.54862 43.1918 6.52645 43.0385 6.52645C42.8634 6.52645 42.7102 6.54862 42.5569 6.57079C42.3818 6.59296 42.2505 6.61513 42.141 6.65947C42.0753 6.90334 42.0315 7.16938 42.0315 7.47977C42.0315 7.79015 42.0753 8.07836 42.141 8.30006C42.2723 8.3444 42.4037 8.38874 42.5569 8.41091C42.7102 8.43308 42.8853 8.45525 43.0385 8.45525C43.2137 8.45525 43.3669 8.43308 43.5202 8.41091C43.6953 8.38874 43.8266 8.3444 43.9361 8.30006C44.0018 8.05619 44.0456 7.79015 44.0456 7.47977Z" fill="#3C3F54"/>
<path d="M43.9142 16.7247V9.71895C43.6734 9.65244 43.3888 9.63026 43.0604 9.63026C42.7321 9.63026 42.4475 9.67461 42.2067 9.71895V16.7247C42.4475 16.7912 42.7321 16.8134 43.0604 16.8134C43.3888 16.8134 43.6734 16.769 43.9142 16.7247Z" fill="#3C3F54"/>
<path d="M37.4343 16.7247C37.2811 16.769 37.0841 16.7912 36.8871 16.8134C36.69 16.8355 36.493 16.8355 36.2741 16.8355C36.0552 16.8355 35.8582 16.8355 35.6611 16.8134C35.4641 16.7912 35.289 16.769 35.1138 16.7247L31.8958 6.72598C32.0272 6.70381 32.1585 6.68164 32.3336 6.65947C32.5088 6.6373 32.6839 6.6373 32.859 6.6373C33.0342 6.6373 33.2093 6.6373 33.3844 6.65947C33.5012 6.67425 33.5985 6.68903 33.6958 6.70381C33.7444 6.7112 33.7931 6.71859 33.8442 6.72598L36.2741 15.0398H36.3617L38.8354 6.72598C38.9667 6.70381 39.0981 6.68164 39.2732 6.65947C39.4484 6.6373 39.6235 6.6373 39.7986 6.6373C39.9737 6.6373 40.1489 6.6373 40.324 6.65947C40.4991 6.68164 40.6305 6.70381 40.7618 6.74815L37.4343 16.7247Z" fill="#3C3F54"/>
<path d="M48.3582 14.6407C48.3582 14.9511 48.4238 15.1506 48.5333 15.2615C48.6646 15.3723 48.8617 15.4167 49.1244 15.4167C49.2995 15.4167 49.5184 15.4167 49.7373 15.3945C49.9562 15.3945 50.1314 15.3723 50.2408 15.3501C50.2627 15.461 50.2846 15.5718 50.3065 15.7049C50.3065 15.8379 50.3065 15.9709 50.2846 16.1039C50.2627 16.2369 50.2408 16.37 50.1751 16.503C50.1314 16.6138 50.0657 16.7247 49.9781 16.7912C49.8687 16.8355 49.7154 16.8577 49.5184 16.8799C49.3214 16.9021 49.1025 16.9021 48.8398 16.9021C48.5552 16.9021 48.2706 16.8799 48.0079 16.8355C47.7452 16.7912 47.5044 16.6804 47.2855 16.5473C47.0885 16.3921 46.9133 16.1704 46.782 15.9044C46.6506 15.6162 46.6068 15.2393 46.6068 14.7737V10.5614H45.5561C45.4904 10.3619 45.4685 10.1623 45.4685 9.91847C45.4685 9.6746 45.4904 9.47507 45.5561 9.27554H46.6068V7.39108C46.7163 7.32457 46.8477 7.28023 47.0228 7.25806C47.176 7.21372 47.3293 7.19155 47.5044 7.19155C47.6576 7.16938 47.8109 7.16938 47.9641 7.16938C48.1174 7.16938 48.2268 7.19155 48.3363 7.21372V9.27554H50.3722C50.4378 9.47507 50.4816 9.6746 50.4816 9.91847C50.4816 10.1623 50.4378 10.3619 50.3722 10.5614H48.3363V14.6407H48.3582Z" fill="#3C3F54"/>
<path fill-rule="evenodd" clip-rule="evenodd" d="M58.8441 15.3058C58.9098 15.5275 58.9317 15.7936 58.9098 16.0818C58.866 16.37 58.7784 16.6138 58.6252 16.7912C58.4282 16.8577 58.2312 16.9021 57.9904 16.9021C57.7714 16.9021 57.5306 16.8577 57.3336 16.7912C57.1147 16.7247 56.9177 16.6138 56.7644 16.4587C56.5893 16.3035 56.458 16.1039 56.3923 15.8822C56.1734 16.1704 55.8669 16.4143 55.5166 16.6138C55.1445 16.8134 54.6629 16.9242 54.0937 16.9242C53.5026 16.9242 53.0648 16.8356 52.7364 16.6804C52.4081 16.5252 52.1672 16.3035 51.9921 16.0596C51.817 15.8157 51.7294 15.5497 51.6856 15.2615C51.6418 14.9733 51.62 14.7294 51.62 14.4855C51.62 14.1086 51.6418 13.7982 51.7075 13.5322C51.7513 13.2662 51.8608 13.0445 51.9921 12.8671C52.1235 12.6897 52.3205 12.5567 52.5832 12.4459C52.8459 12.335 53.1524 12.2685 53.5683 12.2242C53.7434 12.202 53.9623 12.1798 54.2031 12.1798H54.9475C55.2102 12.1798 55.451 12.202 55.6918 12.2463C55.9326 12.2685 56.1515 12.3128 56.3485 12.3794V11.7364C56.3485 11.5147 56.3266 11.3152 56.2828 11.1822C56.239 11.027 56.1734 10.9161 56.0639 10.8496C55.9545 10.7609 55.845 10.7166 55.6918 10.6723C55.5385 10.6501 55.3634 10.6279 55.1445 10.6058C54.5972 10.5836 54.0937 10.5836 53.6121 10.6058C53.1305 10.6279 52.7145 10.6501 52.3862 10.6944C52.2548 10.5392 52.1891 10.3175 52.1454 10.0515C52.1016 9.78546 52.0797 9.54159 52.1016 9.31989C52.3205 9.27555 52.5394 9.25338 52.8021 9.2312C53.0648 9.20903 53.3275 9.18686 53.6121 9.16469C53.7434 9.15361 53.8802 9.14807 54.0171 9.14252C54.1539 9.13698 54.2907 9.13144 54.4221 9.12035C54.5562 9.12035 54.6847 9.11457 54.8104 9.10891C54.9307 9.10349 55.0486 9.09818 55.1664 9.09818C55.6042 9.09818 55.9763 9.12035 56.3485 9.18686C56.7207 9.25338 57.0052 9.36423 57.2679 9.54159C57.5306 9.71895 57.7277 9.98499 57.859 10.3175C58.0122 10.6501 58.0779 11.0935 58.0779 11.6477V15.2393C58.1436 15.2836 58.2093 15.328 58.2968 15.328C58.3844 15.3502 58.472 15.3502 58.5595 15.3502C58.6065 15.3502 58.6471 15.3438 58.6848 15.3379C58.7175 15.3328 58.748 15.328 58.7784 15.328C58.8003 15.3058 58.8441 15.3058 58.8441 15.3058ZM54.5096 15.5497C54.9475 15.5275 55.3196 15.461 55.6042 15.328C55.8888 15.195 56.1296 15.0398 56.3266 14.8402L56.3266 13.244C55.9325 13.244 55.5166 13.244 55.0788 13.2662C54.641 13.2883 54.2907 13.3327 53.9842 13.377C53.8748 13.3992 53.7653 13.4214 53.6996 13.4435C53.634 13.4657 53.5683 13.51 53.5245 13.5987C53.4807 13.6652 53.4369 13.7761 53.4151 13.9091C53.3932 14.0421 53.3932 14.2416 53.3932 14.4634C53.3932 14.8624 53.4807 15.1506 53.634 15.328C53.7653 15.4832 54.0718 15.5719 54.5096 15.5497Z" fill="#3C3F54"/>
<path d="M63.3975 8.03402C63.0035 8.03402 62.7189 8.10053 62.5876 8.25572C62.4343 8.41091 62.3686 8.7213 62.3686 9.1647V9.94065H64.1419C64.2075 10.1402 64.2513 10.3397 64.2513 10.5836C64.2513 10.8275 64.2075 11.027 64.1419 11.2265H62.3686V16.7469C62.0841 16.8134 61.7995 16.8577 61.5149 16.8577C61.2084 16.8577 60.9238 16.8134 60.6611 16.7469V11.2265H59.676C59.6103 11.027 59.5665 10.8275 59.5665 10.5836C59.5665 10.3397 59.6103 10.1402 59.676 9.94065H60.6611V9.07602C60.6611 8.7213 60.7049 8.38874 60.7925 8.07836C60.88 7.76798 61.0333 7.50194 61.2303 7.28024C61.4273 7.05854 61.6681 6.88118 61.9746 6.77033C62.2811 6.63731 62.6313 6.59297 63.0473 6.59297C63.1786 6.59297 63.31 6.59297 63.4851 6.61514C63.6426 6.61514 63.7823 6.63305 63.9361 6.65278L63.9886 6.65948C64.1637 6.68165 64.317 6.70382 64.4702 6.74816C64.5664 6.76207 64.654 6.78472 64.7329 6.80515C64.7797 6.81726 64.8235 6.82858 64.8643 6.83684C64.9081 7.05854 64.9081 7.28024 64.8862 7.52411C64.8424 7.74581 64.7767 7.96751 64.6673 8.16704L64.0762 8.10053C63.8135 8.03402 63.6165 8.03402 63.3975 8.03402Z" fill="#3C3F54"/>
<path fill-rule="evenodd" clip-rule="evenodd" d="M68.6953 9.09818C69.3739 9.09818 69.9431 9.18686 70.4028 9.34206C70.8625 9.51942 71.2347 9.76329 71.5193 10.0737C71.8039 10.4062 72.0009 10.8053 72.1103 11.2709C72.2198 11.7586 72.2855 12.2907 72.2855 12.8893C72.2855 13.5544 72.2198 14.1308 72.1103 14.6407C72.0009 15.1285 71.782 15.5497 71.5193 15.8822C71.2347 16.2148 70.8625 16.4587 70.4028 16.636C69.9431 16.8134 69.3739 16.8799 68.6953 16.8799C68.0166 16.8799 67.4256 16.7912 66.9658 16.636C66.5061 16.4587 66.134 16.2148 65.8494 15.8822C65.5648 15.5497 65.3678 15.1285 65.2583 14.6407C65.1489 14.153 65.0832 13.5544 65.0832 12.8893C65.0832 12.2907 65.1489 11.7364 65.2583 11.2709C65.3678 10.7831 65.5648 10.384 65.8494 10.0737C66.134 9.74112 66.5061 9.49725 66.9658 9.34206C67.4475 9.16469 68.0166 9.09818 68.6953 9.09818ZM68.6953 10.5392C68.3231 10.5392 68.0166 10.5836 67.7758 10.6723C67.535 10.7609 67.3599 10.894 67.2067 11.0935C67.0753 11.293 66.9659 11.5369 66.9221 11.8473C66.8783 12.1577 66.8564 12.5124 66.8564 12.9114C66.8564 13.3548 66.8783 13.7539 66.9221 14.0865C66.9659 14.419 67.0534 14.6851 67.2067 14.8846C67.338 15.0841 67.535 15.2393 67.7758 15.3502C68.0166 15.4388 68.3231 15.5053 68.6953 15.5053C69.0674 15.5053 69.3958 15.461 69.6147 15.3502C69.8555 15.2393 70.0306 15.0841 70.162 14.8846C70.2933 14.6851 70.3809 14.419 70.4247 14.0865C70.4685 13.7539 70.4904 13.377 70.4904 12.9336C70.4904 12.5124 70.4685 12.1577 70.4247 11.8694C70.3809 11.5812 70.2933 11.3152 70.162 11.1378C70.0306 10.9383 69.8555 10.8053 69.6147 10.7166C69.3958 10.5836 69.0893 10.5392 68.6953 10.5392Z" fill="#3C3F54"/>
<path d="M78.8748 9.14252C78.8967 9.2312 78.9186 9.34206 78.9405 9.49725C78.9624 9.65244 78.9624 9.80763 78.9405 9.98499C78.9186 10.1623 78.8967 10.3175 78.8748 10.4727C78.831 10.6279 78.7872 10.7388 78.7434 10.8275C78.5902 10.8053 78.3932 10.8053 78.1743 10.8053C77.9554 10.8053 77.7145 10.8053 77.4519 10.8275C77.1892 10.8496 76.9264 10.8718 76.62 10.894C76.5251 10.9087 76.4302 10.9211 76.3354 10.9334C76.1457 10.958 75.9559 10.9826 75.7662 11.027V16.7469C75.6568 16.769 75.5254 16.7912 75.3722 16.8134C75.2189 16.8356 75.0657 16.8355 74.9124 16.8355C74.7592 16.8355 74.606 16.8356 74.4527 16.8134C74.2995 16.7912 74.1681 16.769 74.0587 16.7469V9.34206C74.1244 9.29772 74.2119 9.25338 74.3433 9.20904C74.4746 9.16469 74.606 9.14252 74.7373 9.14252C74.8687 9.12035 75 9.12035 75.1314 9.12035C75.2627 9.12035 75.3722 9.14252 75.4378 9.16469L75.7443 10.0737C76.007 9.85197 76.2916 9.67461 76.5981 9.54159C76.8827 9.40857 77.1892 9.29772 77.4737 9.2312C77.7583 9.16469 78.021 9.12035 78.2837 9.09818C78.4808 9.09818 78.6778 9.09818 78.8748 9.14252Z" fill="#3C3F54"/>
<path fill-rule="evenodd" clip-rule="evenodd" d="M83.1217 9.09818C83.8441 9.09818 84.4133 9.18686 84.873 9.36423C85.3328 9.54159 85.683 9.80763 85.9457 10.1402C86.2084 10.4727 86.3616 10.8718 86.4273 11.3595C86.493 11.8473 86.493 12.3794 86.4054 12.978C86.3835 13.1331 86.3398 13.2662 86.2741 13.3548C86.2084 13.4435 86.0552 13.51 85.8363 13.5544C85.683 13.5765 85.4203 13.5987 85.0919 13.6209C84.7636 13.6431 84.3914 13.6431 83.9755 13.6431C83.5595 13.6431 83.1655 13.6431 82.7496 13.6209C82.3336 13.5987 81.9396 13.5544 81.6112 13.51C81.6112 13.8869 81.655 14.2195 81.7207 14.4634C81.7863 14.7294 81.8739 14.9289 82.0272 15.0619C82.1585 15.2171 82.3555 15.328 82.5744 15.3723C82.7934 15.4388 83.0999 15.461 83.4501 15.461C83.669 15.461 83.9317 15.461 84.1944 15.4388C84.4571 15.4167 84.7198 15.3945 84.9606 15.3723C85.2014 15.3502 85.4203 15.328 85.5955 15.3058C85.7706 15.2836 85.9019 15.2615 85.9676 15.2393C86.0552 15.3723 86.1427 15.5719 86.2084 15.8379C86.2741 16.1039 86.2741 16.3478 86.2303 16.5917C86.1208 16.636 85.9457 16.6804 85.7268 16.7247C85.5942 16.7516 85.4536 16.7703 85.3001 16.7907C85.2002 16.804 85.0947 16.8181 84.9825 16.8356C84.7199 16.8577 84.4354 16.8799 84.1509 16.902L84.1506 16.9021C83.866 16.9242 83.6033 16.9242 83.3625 16.9242C82.7058 16.9242 82.1366 16.8577 81.6988 16.7247C81.2391 16.5917 80.8669 16.3478 80.5823 16.0374C80.2977 15.727 80.1007 15.3058 79.9694 14.7959C79.838 14.286 79.7942 13.6652 79.7942 12.9114C79.7942 12.2907 79.838 11.7586 79.9475 11.2709C80.035 10.8053 80.2102 10.4062 80.4729 10.0737C80.7137 9.76329 81.0639 9.51942 81.4799 9.34206C81.8958 9.16469 82.4431 9.09818 83.1217 9.09818ZM84.7198 12.4459C84.7417 12.0025 84.7417 11.6699 84.676 11.4039C84.6103 11.1378 84.5228 10.9605 84.3914 10.8275C84.2601 10.6944 84.085 10.6058 83.8879 10.5614C83.6909 10.5171 83.4501 10.4949 83.2093 10.4949C82.8809 10.4949 82.5963 10.5171 82.3993 10.5836C82.1804 10.6279 82.0272 10.7388 81.8958 10.8718C81.7863 11.027 81.6988 11.2265 81.655 11.4704C81.6112 11.7364 81.5893 12.0468 81.5674 12.468L84.7198 12.4459Z" fill="#3C3F54"/>
<path d="M90.9588 9.09818C91.2653 9.09818 91.5937 9.12035 91.9002 9.14252C92.2285 9.16469 92.5131 9.18686 92.7758 9.2312C92.8817 9.24908 92.9841 9.26335 93.0814 9.27692C93.2255 9.29701 93.3588 9.3156 93.4764 9.34206C93.6734 9.3864 93.8047 9.43074 93.8704 9.45291C93.8923 9.54159 93.8923 9.65244 93.8923 9.78546C93.8923 9.90159 93.8756 10.0008 93.8568 10.1127L93.8565 10.1146C93.8539 10.1302 93.8512 10.1461 93.8485 10.1623C93.8266 10.2954 93.8047 10.4062 93.7609 10.5171C93.7172 10.6279 93.6734 10.7166 93.6296 10.8053C93.6077 10.8053 93.5202 10.7831 93.3451 10.7388C93.17 10.6945 92.951 10.6723 92.7102 10.6501C92.4475 10.6279 92.1848 10.6058 91.8564 10.5614C91.5499 10.5392 91.2434 10.5171 90.9588 10.5171C90.4553 10.5171 90.1051 10.5614 89.9081 10.6501C89.711 10.7388 89.6235 10.9161 89.6235 11.1822C89.6235 11.3595 89.6673 11.4926 89.7548 11.6034C89.8424 11.7143 89.9737 11.8029 90.1489 11.8916C90.1871 11.9061 90.2263 11.9217 90.267 11.9378C90.413 11.9957 90.5784 12.0613 90.7837 12.1133C91.0245 12.1798 91.331 12.2685 91.6594 12.3794L91.7074 12.3947C92.1024 12.521 92.4383 12.6284 92.7539 12.7563C93.0604 12.8671 93.3231 13.0223 93.542 13.1997C93.7609 13.377 93.9142 13.5765 94.0236 13.8204C94.1331 14.0643 94.1769 14.3747 94.1769 14.7516C94.1769 15.5053 93.9142 16.0596 93.4107 16.3921C92.9072 16.7469 92.0972 16.9242 90.9807 16.9242C90.6524 16.9242 90.3241 16.9021 89.9957 16.8799C89.6673 16.8577 89.3608 16.8356 89.0981 16.7912C88.9859 16.7737 88.8806 16.7597 88.7807 16.7464C88.6272 16.726 88.4863 16.7072 88.3538 16.6804C88.1348 16.636 87.9816 16.5917 87.8721 16.5473C87.8503 16.3478 87.8503 16.1039 87.8721 15.8379C87.9159 15.5719 87.9816 15.3502 88.0692 15.2171C88.1786 15.2393 88.3319 15.2615 88.5508 15.2836C88.7327 15.3021 88.9297 15.3358 89.1418 15.3721C89.1849 15.3795 89.2288 15.387 89.2732 15.3945C89.5359 15.4388 89.8424 15.461 90.1489 15.4832L90.2101 15.4876C90.4934 15.5082 90.759 15.5275 91.0245 15.5275C91.5718 15.5275 91.944 15.461 92.1629 15.3502C92.3599 15.2393 92.4693 15.0398 92.4693 14.7959C92.4693 14.6407 92.4256 14.5077 92.338 14.419C92.2504 14.3303 92.141 14.2416 91.9658 14.153C91.8126 14.0865 91.5937 13.9978 91.3529 13.9313C91.1121 13.8648 90.8275 13.7761 90.4772 13.6652C90.0613 13.5322 89.6891 13.3992 89.3608 13.2662C89.0324 13.1331 88.7697 12.978 88.5508 12.8006C88.3319 12.6232 88.1567 12.4015 88.0473 12.1577C87.9378 11.9138 87.8721 11.6034 87.8721 11.2709C87.8721 10.5171 88.113 9.96282 88.6165 9.63027C89.1637 9.25338 89.9299 9.09818 90.9588 9.09818Z" fill="#3C3F54"/>
<path d="M97.8547 14.6407C97.8547 14.9511 97.9203 15.1506 98.0298 15.2615C98.1611 15.3723 98.3582 15.4167 98.6209 15.4167C98.796 15.4167 99.0149 15.4167 99.2338 15.3945C99.4527 15.3945 99.6279 15.3723 99.7373 15.3501C99.7592 15.461 99.7811 15.5718 99.803 15.7049C99.803 15.8379 99.803 15.9709 99.7811 16.1039C99.7592 16.237 99.7373 16.37 99.6716 16.503C99.6279 16.6138 99.5622 16.7247 99.4746 16.7912C99.3652 16.8355 99.2119 16.8577 99.0149 16.8799C98.8179 16.9021 98.599 16.9021 98.3363 16.9021C98.0518 16.9021 97.7671 16.8799 97.5044 16.8355C97.2417 16.7912 97.0009 16.6804 96.782 16.5473C96.585 16.3921 96.4098 16.1704 96.2785 15.9044C96.1471 15.6162 96.1034 15.2393 96.1034 14.7737V10.5614H95.0526C94.9869 10.3619 94.965 10.1623 94.965 9.91847C94.965 9.6746 94.9869 9.47507 95.0526 9.27554H96.1034V7.39108C96.2128 7.32457 96.3442 7.28023 96.5193 7.25806C96.6725 7.21372 96.8258 7.19155 97.0009 7.19155C97.1541 7.16938 97.3074 7.16938 97.4606 7.16938C97.6139 7.16938 97.7233 7.19155 97.8328 7.21372V9.27554H99.8687C99.9343 9.47507 99.9781 9.6746 99.9781 9.91847C99.9781 10.1623 99.9343 10.3619 99.8687 10.5614H97.8547V14.6407Z" fill="#3C3F54"/>
</svg>
