<svg width="30" height="30" viewBox="0 0 30 30" fill="none" xmlns="http://www.w3.org/2000/svg">
<path fill-rule="evenodd" clip-rule="evenodd" d="M22.9915 13.999C22.9915 17.865 19.8574 20.999 15.9915 20.999C14.3155 20.999 12.777 20.41 11.5719 19.4276L8.20352 22.796C7.93015 23.0694 7.48694 23.0694 7.21357 22.796C6.9402 22.5226 6.9402 22.0794 7.21357 21.806L10.58 18.4396C9.58737 17.2313 8.99146 15.6847 8.99146 13.999C8.99146 10.133 12.1255 6.99896 15.9915 6.99896C19.8574 6.99896 22.9915 10.133 22.9915 13.999ZM21.5915 13.999C21.5915 17.0918 19.0842 19.599 15.9915 19.599C12.8987 19.599 10.3915 17.0918 10.3915 13.999C10.3915 10.9062 12.8987 8.39896 15.9915 8.39896C19.0842 8.39896 21.5915 10.9062 21.5915 13.999Z" fill="#3C3F54"/>
</svg>
