<svg width="16" height="16" viewBox="0 0 16 16" fill="none" xmlns="http://www.w3.org/2000/svg">
<path fill-rule="evenodd" clip-rule="evenodd" d="M7.99988 0C5.52676 0 3.5219 2.00486 3.5219 4.47798C3.5219 5.92993 4.21293 7.22049 5.28406 8.0387C5.20044 8.06999 5.11731 8.10275 5.03469 8.13697C4.09461 8.52637 3.24043 9.09711 2.52092 9.81662C1.80142 10.5361 1.23067 11.3903 0.841278 12.3304C0.451883 13.2705 0.251465 14.278 0.251465 15.2956C0.251465 15.6846 0.566836 16 0.955866 16C1.3449 16 1.66027 15.6846 1.66027 15.2956C1.66027 14.463 1.82425 13.6387 2.14284 12.8695C2.46144 12.1004 2.92841 11.4015 3.5171 10.8128C4.10578 10.2241 4.80466 9.75713 5.57381 9.43854C6.34297 9.11994 7.16735 8.95596 7.99988 8.95596C8.83241 8.95596 9.65679 9.11994 10.4259 9.43854C11.1951 9.75713 11.894 10.2241 12.4827 10.8128C13.0714 11.4015 13.5383 12.1004 13.8569 12.8695C14.1755 13.6387 14.3395 14.463 14.3395 15.2956C14.3395 15.6846 14.6549 16 15.0439 16C15.4329 16 15.7483 15.6846 15.7483 15.2956C15.7483 14.278 15.5479 13.2705 15.1585 12.3304C14.7691 11.3903 14.1983 10.5361 13.4788 9.81662C12.7593 9.09711 11.9052 8.52637 10.9651 8.13697C10.8825 8.10275 10.7993 8.06999 10.7157 8.0387C11.7868 7.22049 12.4779 5.92993 12.4779 4.47798C12.4779 2.00486 10.473 0 7.99988 0ZM4.9307 4.47798C4.9307 2.78292 6.30482 1.4088 7.99988 1.4088C9.69494 1.4088 11.0691 2.78292 11.0691 4.47798C11.0691 6.17304 9.69494 7.54716 7.99988 7.54716C6.30482 7.54716 4.9307 6.17304 4.9307 4.47798Z" fill="#3C3F54"/>
</svg>
