<svg width="16" height="16" viewBox="0 0 16 16" fill="none" xmlns="http://www.w3.org/2000/svg">
<path fill-rule="evenodd" clip-rule="evenodd" d="M15.9915 6.99902C15.9915 10.865 12.8574 13.999 8.99146 13.999C7.31547 13.999 5.77705 13.41 4.5719 12.4277L1.20352 15.7961C0.930153 16.0694 0.486937 16.0694 0.21357 15.7961C-0.0597968 15.5227 -0.0597968 15.0795 0.21357 14.8061L3.58003 11.4397C2.58737 10.2314 1.99146 8.68481 1.99146 6.99902C1.99146 3.13303 5.12546 -0.000976562 8.99146 -0.000976562C12.8574 -0.000976562 15.9915 3.13303 15.9915 6.99902ZM14.5915 6.99902C14.5915 10.0918 12.0842 12.599 8.99146 12.599C5.89866 12.599 3.39146 10.0918 3.39146 6.99902C3.39146 3.90623 5.89866 1.39902 8.99146 1.39902C12.0842 1.39902 14.5915 3.90623 14.5915 6.99902Z" fill="#3C3F54"/>
</svg>
