<svg width="30" height="30" viewBox="0 0 30 30" fill="none" xmlns="http://www.w3.org/2000/svg">
<path fill-rule="evenodd" clip-rule="evenodd" d="M5.42861 7.68193C5.42861 7.30531 5.73392 7 6.11054 7H8.54601C8.83953 7 9.10012 7.18782 9.19294 7.46629L9.76816 9.19192H23.8895C24.1087 9.19192 24.3145 9.29729 24.4427 9.47512C24.5708 9.65295 24.6057 9.88154 24.5364 10.0895L22.3445 16.6653C22.2516 16.9437 21.9911 17.1315 21.6975 17.1315H11.4686C11.0381 17.1315 10.6892 17.4805 10.6892 17.9109C10.6892 18.3413 11.0381 18.6902 11.4686 18.6902H21.2104C21.5871 18.6902 21.8924 18.9956 21.8924 19.3722C21.8924 19.6821 21.6856 19.9438 21.4024 20.0267C21.5869 20.3245 21.6934 20.6756 21.6934 21.0516C21.6934 22.1277 20.8211 23 19.7451 23C18.669 23 17.7967 22.1277 17.7967 21.0516C17.7967 20.6871 17.8968 20.3459 18.0711 20.0541H14.5641C14.7383 20.3459 14.8385 20.6871 14.8385 21.0516C14.8385 22.1277 13.9661 23 12.8901 23C11.814 23 10.9417 22.1277 10.9417 21.0516C10.9417 20.6813 11.045 20.3351 11.2244 20.0403C10.1557 19.9191 9.32536 19.012 9.32536 17.9109C9.32536 17.042 9.84244 16.2938 10.5857 15.9574L8.0545 8.36386H6.11054C5.73392 8.36386 5.42861 8.05855 5.42861 7.68193ZM11.9601 15.7677H21.206L22.9433 10.5558H10.2228L11.9601 15.7677ZM13.4746 21.0516C13.4746 21.3744 13.2129 21.6361 12.8901 21.6361C12.5673 21.6361 12.3056 21.3744 12.3056 21.0516C12.3056 20.7288 12.5673 20.4671 12.8901 20.4671C13.2129 20.4671 13.4746 20.7288 13.4746 21.0516ZM20.3296 21.0516C20.3296 21.3744 20.0679 21.6361 19.7451 21.6361C19.4223 21.6361 19.1606 21.3744 19.1606 21.0516C19.1606 20.7288 19.4223 20.4671 19.7451 20.4671C20.0679 20.4671 20.3296 20.7288 20.3296 21.0516Z" fill="#3C3F54"/>
</svg>
