<svg width="14" height="15" viewBox="0 0 14 15" fill="none" xmlns="http://www.w3.org/2000/svg">
<path d="M13 0.810547H0.96875C0.4375 0.810547 0 1.2793 0 1.8418V13.8105C0 14.373 0.4375 14.8105 0.96875 14.8105H13C13.5312 14.8105 14 14.373 14 13.8105V1.8418C14 1.2793 13.5312 0.810547 13 0.810547ZM4.21875 12.8105H2.15625V6.1543H4.21875V12.8105ZM3.1875 5.2168C2.5 5.2168 1.96875 4.68555 1.96875 4.0293C1.96875 3.37305 2.5 2.81055 3.1875 2.81055C3.84375 2.81055 4.375 3.37305 4.375 4.0293C4.375 4.68555 3.84375 5.2168 3.1875 5.2168ZM12 12.8105H9.90625V9.56055C9.90625 8.81055 9.90625 7.81055 8.84375 7.81055C7.75 7.81055 7.59375 8.6543 7.59375 9.5293V12.8105H5.53125V6.1543H7.5V7.06055H7.53125C7.8125 6.5293 8.5 5.9668 9.5 5.9668C11.5938 5.9668 12 7.37305 12 9.1543V12.8105Z" fill="white"/>
</svg>
