<svg width="180" height="46" viewBox="0 0 180 46" fill="none" xmlns="http://www.w3.org/2000/svg">
<g opacity="0.7">
<path d="M96.1471 37.9915L95.7924 38.4237C96.1865 38.8558 96.7776 39.1701 97.6051 39.1701C98.866 39.1701 99.3389 38.4629 99.3389 37.795C99.3389 36.7988 98.4505 36.5635 97.6749 36.3582C97.0742 36.1991 96.5411 36.0579 96.5411 35.5949C96.5411 35.1627 96.9746 34.8484 97.5263 34.8484C98.0385 34.8484 98.5508 35.0056 98.9054 35.3985L99.2601 34.9663C98.8266 34.5341 98.2749 34.2984 97.5657 34.2984C96.6594 34.2984 95.9501 34.8092 95.9501 35.5949C95.9501 36.5086 96.7683 36.7327 97.5198 36.9386C98.1579 37.1134 98.7478 37.2751 98.7478 37.8343C98.7478 38.2272 98.472 38.6594 97.6445 38.6594C96.9746 38.6594 96.4623 38.3451 96.1471 37.9915Z" fill="white"/>
<path d="M68.6821 39.0915L67.6576 35.2806L66.6331 39.0915H66.0026L64.6628 34.377H65.3327L66.3966 38.3058L67.4606 34.377H67.9334L68.9973 38.3058L70.0219 34.377H70.6917L69.352 39.0915H68.6821Z" fill="white"/>
<path d="M73.6077 39.0915V34.377H74.1988V39.0915H73.6077Z" fill="white"/>
<path d="M77.5876 34.377V39.0523H80.3853V38.5415H78.1786V34.377H77.5876Z" fill="white"/>
<path fill-rule="evenodd" clip-rule="evenodd" d="M83.4588 39.0915V34.377H85.0744C86.5324 34.377 87.4781 35.3985 87.4781 36.7343C87.4781 38.0701 86.5324 39.0915 85.0744 39.0915H83.4588ZM86.887 36.7343C86.887 35.7128 86.2566 34.8877 85.0744 34.8877H84.0499V38.5415H85.0744C86.2172 38.5415 86.887 37.7557 86.887 36.7343Z" fill="white"/>
<path d="M102.531 34.377H103.122V39.0915H102.531V34.377Z" fill="white"/>
<path fill-rule="evenodd" clip-rule="evenodd" d="M106.51 34.377V39.0523H108.638C109.505 39.0523 110.018 38.5415 110.018 37.795C110.018 37.245 109.623 36.7343 109.111 36.6557C109.545 36.5771 109.939 36.1842 109.939 35.5949C109.939 34.8877 109.426 34.377 108.599 34.377H106.51ZM108.481 34.927C109.032 34.927 109.308 35.2413 109.308 35.6735C109.308 36.1057 109.032 36.42 108.481 36.4592H107.062V34.927H108.481ZM108.52 36.9307C109.072 36.9307 109.387 37.3236 109.387 37.7557C109.387 38.2665 109.072 38.5415 108.52 38.5415H107.062V36.9307H108.52Z" fill="white"/>
<path d="M113.249 39.0523V34.377H116.322V34.8877H113.8V36.42H116.243V36.9307H113.8V38.5415H116.322V39.0523H113.249Z" fill="white"/>
<path fill-rule="evenodd" clip-rule="evenodd" d="M121.051 37.2057L122.272 39.0915H122.942L121.681 37.1664C122.312 37.0879 122.903 36.6557 122.903 35.7913C122.903 34.927 122.272 34.377 121.405 34.377H119.514V39.0915H120.105V37.2057H121.051ZM121.366 34.8877C121.918 34.8877 122.312 35.2806 122.312 35.7913C122.312 36.3414 121.918 36.695 121.366 36.695H120.144V34.8877H121.366Z" fill="white"/>
<path d="M126.134 34.377H126.725V39.0915H126.134V34.377Z" fill="white"/>
<path fill-rule="evenodd" clip-rule="evenodd" d="M133.03 38.0308L133.463 39.0915H134.133L132.242 34.377H131.532L129.641 39.0915H130.232L130.665 38.0308H133.03ZM130.902 37.4807L131.887 34.9663L132.912 37.4807H130.902Z" fill="white"/>
<path d="M0 22.9049C0 10.2542 10.2846 0 22.9729 0C35.6611 0 45.9457 10.2542 45.9851 22.9049C45.9851 24.3978 45.8275 25.8515 45.5517 27.2659C45.3546 28.2481 45.1182 29.191 44.803 30.0946L38.5771 24.1228C38.183 23.7692 37.5919 23.6906 37.1191 24.0049H37.0797C36.6068 24.28 36.4098 24.8693 36.6068 25.38V25.4193C36.9221 26.2444 35.8975 26.9123 35.2671 26.3229L26.1252 17.051C25.7312 16.7367 25.2189 16.5402 24.7067 16.6581C23.9186 16.8545 23.4063 17.5617 23.4851 18.3082L23.6033 21.9227C23.6821 23.1013 22.697 24.0835 21.5149 24.0049L14.028 22.1977C13.5552 22.0798 13.0429 22.2763 12.7671 22.6692C12.4124 23.2192 12.5701 23.9264 13.1217 24.2407L20.9632 29.0731C21.4755 29.3088 21.1602 30.1339 20.6086 29.9374L8.51138 25.6943C7.56567 25.38 6.50175 25.5765 5.71366 26.2051L3.30998 28.2873C5.67426 36.97 13.5946 43.3346 23.0123 43.3346C31.6813 43.3346 39.0893 37.9129 42.0447 30.291L43.9361 32.2554C40.3503 40.2702 32.3117 45.8491 22.9729 45.8491C12.8065 45.8491 4.21629 39.2487 1.18214 30.0946C0.827496 28.9945 0.551664 27.8552 0.354641 26.7158L2.6007 24.7121L10.521 17.7582C11.1515 17.2081 12.1366 17.1688 12.8065 17.6796L15.4466 19.644C16.1165 20.194 17.141 20.1547 17.7715 19.5261L24.352 12.0221C25.1007 11.1578 26.4799 11.1971 27.1497 12.14L33.7303 21.2155C34.3608 21.9227 35.4641 22.0013 36.1734 21.3334L36.6856 20.9405C37.3949 20.3512 38.4194 20.4297 39.0893 21.0584L43.2662 25.1443C43.345 24.3978 43.3844 23.6514 43.3844 22.9049C43.3844 11.6292 34.2426 2.51443 22.9335 2.51443C12.0972 2.51443 3.27058 10.9221 2.5613 21.5298L0.0394046 23.6514C0.0394046 23.5335 0.0295534 23.4058 0.0197023 23.2781C0.00985114 23.1504 0 23.0227 0 22.9049Z" fill="white"/>
<path d="M79.282 13.1222C79.282 12.5722 79.2032 12.0614 79.085 11.6685C79.0193 11.6554 78.9492 11.638 78.8734 11.6191C78.7216 11.5812 78.5464 11.5376 78.3363 11.5114C78.0605 11.4721 77.7452 11.4328 77.4694 11.4328C77.1541 11.4328 76.8783 11.4721 76.6025 11.5114C76.2872 11.5507 76.0508 11.59 75.8538 11.6685C75.7356 12.1007 75.6568 12.5722 75.6568 13.1222C75.6568 13.6722 75.7356 14.183 75.8538 14.5758C76.0902 14.6544 76.3266 14.733 76.6025 14.7723C76.8783 14.8116 77.1936 14.8509 77.4694 14.8509C77.7846 14.8509 78.0605 14.8116 78.3363 14.7723C78.6515 14.733 78.8879 14.6544 79.085 14.5758C79.2032 14.1437 79.282 13.6722 79.282 13.1222Z" fill="white"/>
<path d="M79.0456 29.5053V17.0903C78.6121 16.9724 78.0999 16.9331 77.5088 16.9331C76.9177 16.9331 76.4055 17.0117 75.972 17.0903V29.5053C76.4055 29.6231 76.9177 29.6624 77.5088 29.6624C78.0999 29.6624 78.6121 29.5838 79.0456 29.5053Z" fill="white"/>
<path d="M67.3818 29.5053C67.106 29.5838 66.7513 29.6231 66.3967 29.6624C66.0421 29.7017 65.6873 29.7017 65.2933 29.7017C64.8993 29.7017 64.5447 29.7017 64.19 29.6624C63.8354 29.6231 63.5202 29.5838 63.2049 29.5053L57.4125 11.7864C57.6489 11.7471 57.8853 11.7078 58.2006 11.6685C58.5158 11.6292 58.831 11.6292 59.1463 11.6292C59.4615 11.6292 59.7767 11.6292 60.092 11.6685C60.3021 11.6947 60.4772 11.7209 60.6524 11.7471C60.7399 11.7602 60.8275 11.7733 60.9195 11.7864L65.2934 26.5194H65.451L69.9037 11.7864C70.1401 11.7471 70.3766 11.7078 70.6918 11.6685C71.007 11.6292 71.3223 11.6292 71.6375 11.6292C71.9527 11.6292 72.268 11.6292 72.5832 11.6685C72.8985 11.7078 73.1349 11.7471 73.3713 11.8257L67.3818 29.5053Z" fill="white"/>
<path d="M87.0447 25.8122C87.0447 26.3622 87.1629 26.7158 87.3599 26.9123C87.5964 27.1087 87.951 27.1873 88.4238 27.1873C88.7391 27.1873 89.1331 27.1873 89.5272 27.148C89.9212 27.148 90.2365 27.1087 90.4335 27.0694C90.4729 27.2658 90.5123 27.4623 90.5517 27.698C90.5517 27.9337 90.5517 28.1695 90.5123 28.4052C90.4729 28.6409 90.4335 28.8767 90.3153 29.1124C90.2365 29.3088 90.1182 29.5053 89.9606 29.6231C89.7636 29.7017 89.4878 29.741 89.1331 29.7803C88.7785 29.8196 88.3845 29.8196 87.9117 29.8196C87.3994 29.8196 86.8871 29.7803 86.4142 29.7017C85.9414 29.6231 85.5079 29.4267 85.1139 29.191C84.7592 28.9159 84.444 28.5231 84.2076 28.0516C83.9711 27.5409 83.8923 26.873 83.8923 26.0479V18.5832H82.0009C81.8827 18.2296 81.8433 17.876 81.8433 17.4439C81.8433 17.0117 81.8827 16.6581 82.0009 16.3045H83.8923V12.965C84.0893 12.8472 84.3258 12.7686 84.641 12.7293C84.9168 12.6507 85.1927 12.6114 85.5079 12.6114C85.7837 12.5721 86.0596 12.5721 86.3354 12.5721C86.6112 12.5721 86.8083 12.6114 87.0053 12.6507V16.3045H90.6699C90.7881 16.6581 90.8669 17.0117 90.8669 17.4439C90.8669 17.876 90.7881 18.2296 90.6699 18.5832H87.0053V25.8122H87.0447Z" fill="white"/>
<path fill-rule="evenodd" clip-rule="evenodd" d="M105.919 26.9908C106.038 27.3837 106.077 27.8552 106.038 28.3659C105.959 28.8767 105.801 29.3088 105.525 29.6231C105.171 29.741 104.816 29.8196 104.383 29.8196C103.989 29.8196 103.555 29.741 103.201 29.6231C102.806 29.5053 102.452 29.3088 102.176 29.0338C101.861 28.7588 101.624 28.4052 101.506 28.0123C101.112 28.5231 100.56 28.9552 99.9299 29.3088C99.2601 29.6624 98.3932 29.8589 97.3686 29.8589C96.3047 29.8589 95.5166 29.7017 94.9256 29.4267C94.3345 29.1517 93.901 28.7588 93.5858 28.3266C93.2706 27.8945 93.1129 27.423 93.0341 26.9123C92.9553 26.4015 92.9159 25.9694 92.9159 25.5372C92.9159 24.8693 92.9553 24.3193 93.0735 23.8478C93.1524 23.3763 93.3494 22.9835 93.5858 22.6692C93.8222 22.3549 94.1769 22.1191 94.6497 21.9227C95.1226 21.7262 95.6742 21.6084 96.4229 21.5298C96.7382 21.4905 97.1322 21.4512 97.5657 21.4512H98.9054C99.3783 21.4512 99.8117 21.4905 100.245 21.5691C100.679 21.6084 101.073 21.687 101.427 21.8048V20.6655C101.427 20.2726 101.388 19.919 101.309 19.6833C101.23 19.4083 101.112 19.2118 100.915 19.094C100.718 18.9368 100.521 18.8582 100.245 18.7797C99.9693 18.7404 99.6541 18.7011 99.2601 18.6618C98.2749 18.6225 97.3686 18.6225 96.5017 18.6618C95.6348 18.7011 94.8862 18.7404 94.2951 18.8189C94.0587 18.5439 93.9404 18.151 93.8616 17.6796C93.7828 17.2081 93.7434 16.776 93.7828 16.3831C94.1769 16.3045 94.5709 16.2652 95.0438 16.2259C95.5166 16.1866 95.9895 16.1474 96.5017 16.1081C96.7382 16.0884 96.9844 16.0786 97.2307 16.0688C97.477 16.059 97.7233 16.0491 97.9597 16.0295C98.2012 16.0295 98.4325 16.0192 98.6587 16.0092C98.8753 15.9996 99.0874 15.9902 99.2995 15.9902C100.088 15.9902 100.757 16.0295 101.427 16.1474C102.097 16.2652 102.609 16.4617 103.082 16.776C103.555 17.0903 103.91 17.5617 104.146 18.151C104.422 18.7404 104.54 19.5261 104.54 20.5083V26.873C104.658 26.9516 104.777 27.0301 104.934 27.0301C105.092 27.0694 105.25 27.0694 105.407 27.0694C105.492 27.0694 105.565 27.0581 105.633 27.0477C105.691 27.0386 105.746 27.0301 105.801 27.0301C105.841 26.9908 105.919 26.9908 105.919 26.9908ZM98.1173 27.423C98.9054 27.3837 99.5753 27.2659 100.088 27.0301C100.6 26.7944 101.033 26.5194 101.388 26.1658L101.388 23.3371C100.679 23.3371 99.9299 23.3371 99.1418 23.3763C98.3538 23.4156 97.7232 23.4942 97.1716 23.5728C96.9746 23.6121 96.7776 23.6514 96.6594 23.6906C96.5411 23.7299 96.4229 23.8085 96.3441 23.9657C96.2653 24.0835 96.1865 24.28 96.1471 24.5157C96.1077 24.7514 96.1077 25.105 96.1077 25.4979C96.1077 26.2051 96.2653 26.7158 96.5411 27.0301C96.7776 27.3051 97.3292 27.4623 98.1173 27.423Z" fill="white"/>
<path d="M114.116 14.1044C113.406 14.1044 112.894 14.2223 112.658 14.4973C112.382 14.7723 112.264 15.3223 112.264 16.1081V17.4832H115.455C115.574 17.8367 115.652 18.1903 115.652 18.6225C115.652 19.0547 115.574 19.4083 115.455 19.7619H112.264V29.5446C111.751 29.6624 111.239 29.741 110.727 29.741C110.175 29.741 109.663 29.6624 109.19 29.5446V19.7619H107.417C107.299 19.4083 107.22 19.0547 107.22 18.6225C107.22 18.1903 107.299 17.8367 107.417 17.4832H109.19V15.9509C109.19 15.3223 109.269 14.733 109.426 14.183C109.584 13.6329 109.86 13.1615 110.215 12.7686C110.569 12.3757 111.003 12.0614 111.554 11.865C112.106 11.6292 112.736 11.5507 113.485 11.5507C113.722 11.5507 113.958 11.5507 114.273 11.59C114.557 11.59 114.808 11.6217 115.085 11.6567L115.18 11.6685C115.495 11.7078 115.771 11.7471 116.046 11.8257C116.22 11.8503 116.377 11.8905 116.519 11.9267C116.604 11.9481 116.682 11.9682 116.756 11.9828C116.834 12.3757 116.834 12.7686 116.795 13.2008C116.716 13.5936 116.598 13.9865 116.401 14.3401L115.337 14.2223C114.864 14.1044 114.51 14.1044 114.116 14.1044Z" fill="white"/>
<path fill-rule="evenodd" clip-rule="evenodd" d="M123.651 15.9902C124.873 15.9902 125.898 16.1474 126.725 16.4224C127.553 16.7367 128.222 17.1688 128.735 17.7189C129.247 18.3082 129.602 19.0154 129.799 19.8404C129.996 20.7048 130.114 21.6477 130.114 22.7084C130.114 23.8871 129.996 24.9086 129.799 25.8122C129.602 26.6765 129.208 27.423 128.735 28.0123C128.222 28.6016 127.553 29.0338 126.725 29.3481C125.898 29.6624 124.873 29.7803 123.651 29.7803C122.43 29.7803 121.366 29.6231 120.539 29.3481C119.711 29.0338 119.041 28.6016 118.529 28.0123C118.017 27.423 117.662 26.6765 117.465 25.8122C117.268 24.9479 117.15 23.8871 117.15 22.7084C117.15 21.6477 117.268 20.6655 117.465 19.8404C117.662 18.9761 118.017 18.2689 118.529 17.7189C119.041 17.1296 119.711 16.6974 120.539 16.4224C121.405 16.1081 122.43 15.9902 123.651 15.9902ZM123.651 18.5439C122.982 18.5439 122.43 18.6225 121.996 18.7797C121.563 18.9368 121.248 19.1725 120.972 19.5261C120.736 19.8797 120.539 20.3119 120.46 20.8619C120.381 21.4119 120.342 22.0406 120.342 22.7477C120.342 23.5335 120.381 24.2407 120.46 24.83C120.539 25.4193 120.696 25.8908 120.972 26.2444C121.208 26.598 121.563 26.873 121.996 27.0694C122.43 27.2266 122.982 27.3444 123.651 27.3444C124.321 27.3444 124.912 27.2659 125.306 27.0694C125.74 26.873 126.055 26.598 126.292 26.2444C126.528 25.8908 126.686 25.4193 126.764 24.83C126.843 24.2407 126.883 23.5728 126.883 22.787C126.883 22.0406 126.843 21.4119 126.764 20.9012C126.686 20.3905 126.528 19.919 126.292 19.6047C126.055 19.2511 125.74 19.0154 125.306 18.8582C124.912 18.6225 124.361 18.5439 123.651 18.5439Z" fill="white"/>
<path d="M141.975 16.0688C142.014 16.2259 142.053 16.4224 142.093 16.6974C142.132 16.9724 142.132 17.2474 142.093 17.5617C142.053 17.876 142.014 18.151 141.975 18.4261C141.896 18.7011 141.817 18.8975 141.738 19.0547C141.462 19.0154 141.108 19.0154 140.714 19.0154C140.32 19.0154 139.886 19.0154 139.413 19.0547C138.941 19.0939 138.467 19.1333 137.916 19.1725C137.745 19.1987 137.574 19.2206 137.404 19.2424C137.062 19.286 136.721 19.3297 136.379 19.4083V29.5446C136.182 29.5838 135.946 29.6231 135.67 29.6624C135.394 29.7017 135.118 29.7017 134.842 29.7017C134.567 29.7017 134.291 29.7017 134.015 29.6624C133.739 29.6231 133.503 29.5838 133.306 29.5446V16.4224C133.424 16.3438 133.581 16.2652 133.818 16.1866C134.054 16.1081 134.291 16.0688 134.527 16.0688C134.764 16.0295 135 16.0295 135.236 16.0295C135.473 16.0295 135.67 16.0688 135.788 16.1081L136.34 17.7189C136.813 17.326 137.325 17.0117 137.877 16.776C138.389 16.5402 138.94 16.3438 139.453 16.2259C139.965 16.1081 140.438 16.0295 140.911 15.9902C141.265 15.9902 141.62 15.9902 141.975 16.0688Z" fill="white"/>
<path fill-rule="evenodd" clip-rule="evenodd" d="M149.619 15.9902C150.919 15.9902 151.944 16.1474 152.771 16.4617C153.599 16.776 154.229 17.2474 154.702 17.8367C155.175 18.4261 155.451 19.1332 155.569 19.9976C155.687 20.8619 155.687 21.8048 155.53 22.8656C155.49 23.1406 155.412 23.3763 155.293 23.5335C155.175 23.6906 154.899 23.8085 154.505 23.8871C154.229 23.9264 153.757 23.9657 153.166 24.005C152.574 24.0442 151.905 24.0442 151.156 24.0442C150.407 24.0442 149.698 24.0442 148.949 24.005C148.201 23.9657 147.491 23.8871 146.9 23.8085C146.9 24.4764 146.979 25.0657 147.097 25.4979C147.215 25.9694 147.373 26.3229 147.649 26.5587C147.885 26.8337 148.24 27.0301 148.634 27.1087C149.028 27.2266 149.58 27.2659 150.21 27.2659C150.604 27.2659 151.077 27.2659 151.55 27.2266C152.023 27.1873 152.496 27.148 152.929 27.1087C153.363 27.0694 153.757 27.0301 154.072 26.9908C154.387 26.9515 154.623 26.9123 154.742 26.873C154.899 27.1087 155.057 27.4623 155.175 27.9337C155.293 28.4052 155.293 28.8374 155.215 29.2695C155.018 29.3481 154.702 29.4267 154.308 29.5053C154.07 29.5528 153.816 29.586 153.54 29.6223C153.36 29.6458 153.171 29.6707 152.968 29.7017C152.496 29.741 151.984 29.7803 151.472 29.8195L151.471 29.8196C150.959 29.8589 150.486 29.8589 150.053 29.8589C148.87 29.8589 147.846 29.741 147.058 29.5053C146.23 29.2695 145.56 28.8374 145.048 28.2873C144.536 27.7373 144.181 26.9908 143.945 26.0872C143.708 25.1836 143.63 24.0835 143.63 22.7477C143.63 21.6477 143.708 20.7048 143.905 19.8404C144.063 19.0154 144.378 18.3082 144.851 17.7189C145.285 17.1688 145.915 16.7367 146.664 16.4224C147.412 16.1081 148.398 15.9902 149.619 15.9902ZM152.496 21.9227C152.535 21.1369 152.535 20.5476 152.417 20.0762C152.299 19.6047 152.141 19.2904 151.905 19.0547C151.668 18.8189 151.353 18.6618 150.998 18.5832C150.644 18.5046 150.21 18.4653 149.777 18.4653C149.186 18.4653 148.673 18.5046 148.319 18.6225C147.925 18.7011 147.649 18.8975 147.412 19.1332C147.215 19.4083 147.058 19.7619 146.979 20.194C146.9 20.6655 146.861 21.2155 146.821 21.962L152.496 21.9227Z" fill="white"/>
<path d="M163.726 15.9902C164.278 15.9902 164.869 16.0295 165.42 16.0688C166.011 16.1081 166.524 16.1474 166.996 16.2259C167.187 16.2576 167.371 16.2829 167.547 16.307C167.806 16.3425 168.046 16.3755 168.257 16.4224C168.612 16.5009 168.849 16.5795 168.967 16.6188C169.006 16.776 169.006 16.9724 169.006 17.2081C169.006 17.4139 168.976 17.5898 168.942 17.788L168.942 17.7913C168.937 17.8191 168.932 17.8473 168.927 17.876C168.888 18.1118 168.849 18.3082 168.77 18.5046C168.691 18.7011 168.612 18.8582 168.533 19.0154C168.494 19.0154 168.336 18.9761 168.021 18.8976C167.706 18.819 167.312 18.7797 166.878 18.7404C166.405 18.7011 165.933 18.6618 165.342 18.5832C164.79 18.5439 164.238 18.5046 163.726 18.5046C162.82 18.5046 162.189 18.5832 161.835 18.7404C161.48 18.8975 161.322 19.2118 161.322 19.6833C161.322 19.9976 161.401 20.2333 161.559 20.4297C161.716 20.6262 161.953 20.7833 162.268 20.9405C162.337 20.9662 162.407 20.9938 162.481 21.0224C162.743 21.125 163.041 21.2413 163.411 21.3334C163.844 21.4512 164.396 21.6084 164.987 21.8048L165.073 21.832C165.784 22.0558 166.389 22.2461 166.957 22.4727C167.509 22.6692 167.982 22.9442 168.376 23.2585C168.77 23.5728 169.046 23.9264 169.243 24.3585C169.44 24.7907 169.518 25.3407 169.518 26.0086C169.518 27.3444 169.046 28.3266 168.139 28.9159C167.233 29.5446 165.775 29.8589 163.765 29.8589C163.174 29.8589 162.583 29.8196 161.992 29.7803C161.401 29.741 160.849 29.7017 160.377 29.6231C160.175 29.5922 159.985 29.5673 159.805 29.5437C159.529 29.5075 159.275 29.4743 159.037 29.4267C158.643 29.3481 158.367 29.2695 158.17 29.191C158.13 28.8374 158.13 28.4052 158.17 27.9337C158.249 27.4623 158.367 27.0694 158.525 26.8337C158.722 26.873 158.997 26.9123 159.391 26.9515C159.719 26.9842 160.073 27.044 160.455 27.1083C160.533 27.1214 160.612 27.1347 160.692 27.148C161.165 27.2266 161.716 27.2659 162.268 27.3051L162.378 27.313C162.888 27.3495 163.366 27.3837 163.844 27.3837C164.829 27.3837 165.499 27.2659 165.893 27.0694C166.248 26.873 166.445 26.5194 166.445 26.0872C166.445 25.8122 166.366 25.5765 166.208 25.4193C166.051 25.2622 165.854 25.105 165.539 24.9479C165.263 24.83 164.869 24.6728 164.435 24.555C164.002 24.4371 163.489 24.28 162.859 24.0835C162.11 23.8478 161.44 23.6121 160.849 23.3763C160.258 23.1406 159.785 22.8656 159.391 22.5513C158.997 22.237 158.682 21.8441 158.485 21.4119C158.288 20.9798 158.17 20.4297 158.17 19.8404C158.17 18.5046 158.603 17.5224 159.51 16.9331C160.495 16.2652 161.874 15.9902 163.726 15.9902Z" fill="white"/>
<path d="M176.138 25.8122C176.138 26.3622 176.257 26.7158 176.454 26.9123C176.69 27.1087 177.045 27.1873 177.518 27.1873C177.833 27.1873 178.227 27.1873 178.621 27.148C179.015 27.148 179.33 27.1087 179.527 27.0694C179.567 27.2658 179.606 27.4623 179.645 27.698C179.645 27.9337 179.645 28.1695 179.606 28.4052C179.567 28.6409 179.527 28.8766 179.409 29.1124C179.33 29.3088 179.212 29.5053 179.054 29.6231C178.857 29.7017 178.581 29.741 178.227 29.7803C177.872 29.8196 177.478 29.8196 177.005 29.8196C176.493 29.8196 175.981 29.7803 175.508 29.7017C175.035 29.6231 174.602 29.4267 174.208 29.191C173.853 28.9159 173.538 28.5231 173.301 28.0516C173.065 27.5409 172.986 26.873 172.986 26.0479V18.5832H171.095C170.976 18.2296 170.937 17.876 170.937 17.4439C170.937 17.0117 170.976 16.6581 171.095 16.3045H172.986V12.965C173.183 12.8472 173.419 12.7686 173.735 12.7293C174.011 12.6507 174.286 12.6114 174.602 12.6114C174.877 12.5721 175.153 12.5721 175.429 12.5721C175.705 12.5721 175.902 12.6114 176.099 12.6507V16.3045H179.764C179.882 16.6581 179.961 17.0117 179.961 17.4439C179.961 17.876 179.882 18.2296 179.764 18.5832H176.138V25.8122Z" fill="white"/>
</g>
</svg>
