<svg width="16" height="14" viewBox="0 0 16 14" fill="none" xmlns="http://www.w3.org/2000/svg">
<path d="M14.3438 3.56055C14.9688 3.0918 15.5312 2.5293 15.9688 1.87305C15.4062 2.12305 14.75 2.31055 14.0938 2.37305C14.7812 1.9668 15.2812 1.3418 15.5312 0.560547C14.9062 0.935547 14.1875 1.2168 13.4688 1.37305C12.8438 0.716797 12 0.341797 11.0625 0.341797C9.25 0.341797 7.78125 1.81055 7.78125 3.62305C7.78125 3.87305 7.8125 4.12305 7.875 4.37305C5.15625 4.2168 2.71875 2.9043 1.09375 0.935547C0.8125 1.4043 0.65625 1.9668 0.65625 2.5918C0.65625 3.7168 1.21875 4.7168 2.125 5.31055C1.59375 5.2793 1.0625 5.1543 0.625 4.9043V4.93555C0.625 6.5293 1.75 7.8418 3.25 8.1543C3 8.2168 2.6875 8.2793 2.40625 8.2793C2.1875 8.2793 2 8.24805 1.78125 8.2168C2.1875 9.5293 3.40625 10.4668 4.84375 10.498C3.71875 11.373 2.3125 11.9043 0.78125 11.9043C0.5 11.9043 0.25 11.873 0 11.8418C1.4375 12.7793 3.15625 13.3105 5.03125 13.3105C11.0625 13.3105 14.3438 8.3418 14.3438 3.99805C14.3438 3.8418 14.3438 3.7168 14.3438 3.56055Z" fill="white"/>
</svg>
