<svg width="18" height="13" viewBox="0 0 18 13" fill="none" xmlns="http://www.w3.org/2000/svg">
<path d="M17.1562 2.7168C16.9688 1.9668 16.375 1.37305 15.6562 1.18555C14.3125 0.810547 9 0.810547 9 0.810547C9 0.810547 3.65625 0.810547 2.3125 1.18555C1.59375 1.37305 1 1.9668 0.8125 2.7168C0.4375 4.0293 0.4375 6.8418 0.4375 6.8418C0.4375 6.8418 0.4375 9.62305 0.8125 10.9668C1 11.7168 1.59375 12.2793 2.3125 12.4668C3.65625 12.8105 9 12.8105 9 12.8105C9 12.8105 14.3125 12.8105 15.6562 12.4668C16.375 12.2793 16.9688 11.7168 17.1562 10.9668C17.5312 9.62305 17.5312 6.8418 17.5312 6.8418C17.5312 6.8418 17.5312 4.0293 17.1562 2.7168ZM7.25 9.37305V4.31055L11.6875 6.8418L7.25 9.37305Z" fill="white"/>
</svg>
