<svg width="28" height="31" viewBox="0 0 28 31" fill="none" xmlns="http://www.w3.org/2000/svg">
<path d="M23.5907 7.80556V7.59701L23.4425 7.45027L16.5699 0.644716L16.4237 0.5H16.2181H1H0.5V1V29.1945V29.6945H1H23.0907H23.5907V29.1945V7.80556Z" fill="#F3F7F2" stroke="#EAEBEC"/>
<path d="M5.90912 12.1806H18.1817C18.4527 12.1806 18.6727 11.9633 18.6727 11.6945C18.6727 11.4257 18.4527 11.2084 18.1817 11.2084H5.90912C5.63814 11.2084 5.41821 11.4257 5.41821 11.6945C5.41821 11.9633 5.63814 12.1806 5.90912 12.1806Z" fill="#EAEBEC"/>
<path d="M5.90912 8.29168H10.8182C11.0892 8.29168 11.3091 8.07439 11.3091 7.80557C11.3091 7.53675 11.0892 7.31946 10.8182 7.31946H5.90912C5.63814 7.31946 5.41821 7.53675 5.41821 7.80557C5.41821 8.07439 5.63814 8.29168 5.90912 8.29168Z" fill="#EAEBEC"/>
<path d="M18.1817 15.0972H5.90912C5.63814 15.0972 5.41821 15.3145 5.41821 15.5833C5.41821 15.8521 5.63814 16.0694 5.90912 16.0694H18.1817C18.4527 16.0694 18.6727 15.8521 18.6727 15.5833C18.6727 15.3145 18.4527 15.0972 18.1817 15.0972Z" fill="#EAEBEC"/>
<path d="M18.1817 18.9861H5.90912C5.63814 18.9861 5.41821 19.2034 5.41821 19.4722C5.41821 19.741 5.63814 19.9583 5.90912 19.9583H18.1817C18.4527 19.9583 18.6727 19.741 18.6727 19.4722C18.6727 19.2034 18.4527 18.9861 18.1817 18.9861Z" fill="#EAEBEC"/>
<path d="M18.1817 22.875H5.90912C5.63814 22.875 5.41821 23.0923 5.41821 23.3611C5.41821 23.6299 5.63814 23.8472 5.90912 23.8472H18.1817C18.4527 23.8472 18.6727 23.6299 18.6727 23.3611C18.6727 23.0923 18.4527 22.875 18.1817 22.875Z" fill="#EAEBEC"/>
<path d="M16.218 1V7.80556H23.0907L16.218 1Z" fill="#EAEBEC"/>
<path d="M26.0001 19.3055H19.2002C18.0956 19.3055 17.2002 20.201 17.2002 21.3055V28C17.2002 29.1046 18.0956 30 19.2002 30H26.0001C27.1047 30 28.0001 29.1046 28.0001 28V21.3055C28.0001 20.201 27.1047 19.3055 26.0001 19.3055Z" fill="#40BF6A"/>
<path d="M23.0912 27.4188V21.777C23.0912 21.5059 22.8714 21.2861 22.6003 21.2861C22.3292 21.2861 22.1094 21.5059 22.1094 21.777V27.4188C22.1094 27.69 22.3292 27.9097 22.6003 27.9097C22.8714 27.9097 23.0912 27.69 23.0912 27.4188Z" fill="white"/>
<path d="M22.6009 28.2605L19.5459 25.3619C19.3386 25.1652 19.3386 24.835 19.5459 24.6383C19.7383 24.4558 20.0399 24.4558 20.2323 24.6384L22.6009 26.8857L24.9694 24.6384C25.1618 24.4558 25.4635 24.4558 25.6559 24.6383C25.8632 24.835 25.8632 25.1652 25.6559 25.3619L22.6009 28.2605Z" fill="white"/>
</svg>
