<svg width="16" height="16" viewBox="0 0 16 16" fill="none" xmlns="http://www.w3.org/2000/svg">
<path d="M14.4844 0H1.51568C0.171933 0 -0.515567 1.62354 0.453183 2.5602L5.51568 7.61816V12.9883C5.51568 13.4879 5.73443 13.925 6.10943 14.2372L8.10943 15.7359C9.02337 16.3544 10.3545 15.8336 10.5022 14.7241C9.95695 14.894 9.34301 14.7829 8.8875 14.3909L7.01568 12.9883V6.99372L1.51568 1.49865H14.5157L9.54968 6.4602C10.1182 6.30648 10.7508 6.45276 11.1971 6.89904L11.2141 6.91602L15.5469 2.5602C16.5157 1.62354 15.8282 0 14.4844 0Z" fill="#848AA5"/>
<path d="M10.0909 10.6011L9.01568 11.6763V9.52593L10.0909 10.6011Z" fill="#848AA5"/>
<path d="M10.49 7.60615C10.2167 7.33278 9.77344 7.33278 9.50007 7.60615C9.2267 7.87952 9.2267 8.32273 9.50007 8.5961L11.5051 10.6011L9.50007 12.6061C9.2267 12.8795 9.2267 13.3227 9.50007 13.5961C9.77344 13.8695 10.2167 13.8695 10.49 13.5961L12.495 11.5911L14.5001 13.5961C14.7734 13.8695 15.2167 13.8695 15.49 13.5961C15.7634 13.3227 15.7634 12.8795 15.49 12.6061L13.485 10.6011L15.49 8.5961C15.7634 8.32273 15.7634 7.87952 15.49 7.60615C15.2167 7.33278 14.7734 7.33278 14.5001 7.60615L12.495 9.61117L10.49 7.60615Z" fill="#848AA5"/>
</svg>
