<svg width="16" height="16" viewBox="0 0 16 16" fill="none" xmlns="http://www.w3.org/2000/svg">
<path d="M15.9999 2C15.9999 1.58579 15.6641 1.25 15.2499 1.25H8.99988V0.5C8.99988 0.25 8.74988 0 8.49988 0H7.49988C7.21863 0 6.99988 0.25 6.99988 0.5V1.25H0.749878C0.335664 1.25 -0.00012207 1.58579 -0.00012207 2C-0.00012207 2.41421 0.335664 2.75 0.749878 2.75H6.99988V3.5C6.99988 3.78125 7.21863 4 7.49988 4H8.49988C8.74988 4 8.99988 3.78125 8.99988 3.5V2.75H15.2499C15.6641 2.75 15.9999 2.41421 15.9999 2ZM16 13.9999C15.9999 13.5857 15.6642 13.25 15.25 13.25H4.99988V12.5C4.99988 12.25 4.74988 12 4.49988 12H3.49988C3.21863 12 2.99988 12.25 2.99988 12.5V13.25H0.750025C0.335786 13.25 -1.15355e-05 13.5858 2.47268e-05 14.0001C6.09845e-05 14.4143 0.335837 14.75 0.750025 14.75H2.99988V15.5C2.99988 15.7812 3.21863 16 3.49988 16H4.49988C4.74988 16 4.99988 15.7812 4.99988 15.5V14.75H15.25C15.6643 14.75 16.0001 14.4141 16 13.9999ZM16.0002 8C16.0002 7.58579 15.6644 7.25 15.2502 7.25H12.9999V6.5C12.9999 6.25 12.7499 6 12.4999 6H11.4999C11.2186 6 10.9999 6.25 10.9999 6.5V7.25H0.749939C0.335784 7.25 2.2592e-05 7.58569 -6.10344e-05 7.99985C-0.000144685 8.41412 0.335666 8.75 0.749939 8.75H10.9999V9.5C10.9999 9.78125 11.2186 10 11.4999 10H12.4999C12.7499 10 12.9999 9.78125 12.9999 9.5V8.75H15.2502C15.6644 8.75 16.0002 8.41421 16.0002 8Z" fill="#848AA5"/>
</svg>
