<svg width="15" height="16" viewBox="0 0 15 16" fill="none" xmlns="http://www.w3.org/2000/svg">
<path d="M5.3726 12.5716H3.72V0.79C3.72 0.35367 3.36627 -3.46217e-05 2.92994 2.54158e-09C2.49366 3.46229e-05 2.14 0.35372 2.14 0.79V12.5716H0.432692C0.216346 12.5716 0 12.7859 0 13.0002C0 13.1431 0.0721154 13.2502 0.144231 13.3216L2.59615 15.8931C2.66827 15.9645 2.77644 16.0002 2.88462 16.0002C3.02885 16.0002 3.13702 15.9645 3.20913 15.8931L5.66106 13.3216C5.73317 13.2502 5.76923 13.1431 5.76923 13.0359C5.76923 12.7859 5.58894 12.6074 5.3726 12.5716ZM14.8918 2.7145L12.4399 0.143075C12.3678 0.071646 12.2596 0.00021742 12.1514 0.00021742C12.0072 0.00021742 11.899 0.071646 11.8269 0.143075L9.375 2.7145C9.30289 2.78593 9.26683 2.89307 9.26683 3.00022C9.26683 3.25022 9.44711 3.42879 9.69952 3.42879H11.36V15.2302C11.36 15.6555 11.7047 16.0002 12.13 16.0002C12.5553 16.0002 12.9 15.6555 12.9 15.2302V3.42879H14.6034C14.8197 3.42879 15 3.25022 15 3.00022C15 2.89307 14.9639 2.78593 14.8918 2.7145Z" fill="#848AA5"/>
</svg>
