<svg width="15" height="16" viewBox="0 0 15 16" fill="none" xmlns="http://www.w3.org/2000/svg">
<path d="M8.53044 14.9487C8.55983 15.5204 8.10421 16 7.53176 16H7.49362C6.92454 16 6.47018 15.5258 6.49454 14.9572L6.73833 9.26619L1.96885 12.3735C1.48834 12.6865 0.843544 12.5322 0.556878 12.0355L0.515468 11.9637C0.228976 11.4673 0.417478 10.8322 0.928382 10.5724L5.98833 8L0.928382 5.42756C0.417478 5.16782 0.228976 4.53268 0.515468 4.03628L0.556878 3.96453C0.843544 3.46783 1.48834 3.31347 1.96885 3.62652L6.73833 6.73382L6.49454 1.0428C6.47018 0.474241 6.92454 0 7.49362 0H7.53176C8.10421 0 8.55983 0.479642 8.53044 1.05134L8.23833 6.73382L13.0463 3.63309C13.5344 3.31832 14.187 3.48416 14.4657 3.99375L14.4959 4.04902C14.7658 4.54257 14.5756 5.16151 14.0752 5.4184L9.04602 8L14.0752 10.5816C14.5756 10.8385 14.7658 11.4574 14.4959 11.951L14.4657 12.0063C14.187 12.5158 13.5344 12.6817 13.0463 12.3669L8.23833 9.26619L8.53044 14.9487Z" fill="#3C3F54"/>
</svg>
