<svg width="17" height="12" viewBox="0 0 17 12" fill="none" xmlns="http://www.w3.org/2000/svg">
<path d="M3.50147 0C1.84441 0 0.5 1.34375 0.5 3V9C0.5 10.6562 1.84441 12 3.50147 12H6.12775C6.31534 12 6.50293 11.8438 6.50293 11.625V10.875C6.50293 10.6875 6.31534 10.5 6.12775 10.5H3.50147C2.6573 10.5 2.00073 9.84375 2.00073 9V3C2.00073 2.1875 2.6573 1.5 3.50147 1.5H6.12775C6.31534 1.5 6.50293 1.34375 6.50293 1.125V0.375C6.50293 0.1875 6.31534 0 6.12775 0H3.50147ZM10.7237 0.625L10.0984 1.25C9.94211 1.375 9.94211 1.625 10.0984 1.78125L13.6314 5.1875H5.87763C5.65877 5.1875 5.50244 5.375 5.50244 5.5625V6.4375C5.50244 6.65625 5.65877 6.8125 5.87763 6.8125H13.6314L10.0984 10.25C9.94211 10.4062 9.94211 10.6562 10.0984 10.7812L10.7237 11.4062C10.8488 11.5625 11.0989 11.5625 11.2553 11.4062L16.3828 6.28125C16.5391 6.125 16.5391 5.90625 16.3828 5.75L11.2553 0.625C11.0989 0.46875 10.8488 0.46875 10.7237 0.625Z" fill="#3C3F54"/>
</svg>
