<svg width="17" height="14" viewBox="0 0 17 14" fill="none" xmlns="http://www.w3.org/2000/svg">
<path fill-rule="evenodd" clip-rule="evenodd" d="M0.5 1.05407C0.5 0.748065 0.755186 0.5 1.06997 0.5H3.1056C3.35093 0.5 3.56874 0.652607 3.64632 0.878857L4.1271 2.28094H15.93C16.1132 2.28094 16.2853 2.36655 16.3924 2.51103C16.4995 2.65552 16.5287 2.84125 16.4707 3.01022L14.6387 8.35302C14.5611 8.57927 14.3433 8.73188 14.098 8.73188H5.54834C5.18859 8.73188 4.89695 9.01538 4.89695 9.3651C4.89695 9.71482 5.18859 9.99832 5.54835 9.99832H13.6908C14.0056 9.99832 14.2608 10.2464 14.2608 10.5524C14.2608 10.8042 14.088 11.0168 13.8513 11.0842C14.0055 11.3261 14.0945 11.6114 14.0945 11.9169C14.0945 12.7912 13.3654 13.5 12.466 13.5C11.5666 13.5 10.8375 12.7912 10.8375 11.9169C10.8375 11.6207 10.9212 11.3435 11.0669 11.1065H8.13565C8.28129 11.3435 8.36498 11.6207 8.36498 11.9169C8.36498 12.7912 7.63588 13.5 6.73648 13.5C5.83709 13.5 5.10798 12.7912 5.10798 11.9169C5.10798 11.6161 5.19433 11.3348 5.34424 11.0953C4.45102 10.9968 3.757 10.2597 3.757 9.3651C3.757 8.65911 4.18919 8.05125 4.81041 7.77789L2.69478 1.60814H1.06997C0.755186 1.60814 0.5 1.36007 0.5 1.05407ZM5.95916 7.62374H13.6871L15.1392 3.38907H4.50708L5.95916 7.62374ZM7.22503 11.9169C7.22503 12.1792 7.0063 12.3919 6.73648 12.3919C6.46666 12.3919 6.24793 12.1792 6.24793 11.9169C6.24793 11.6547 6.46666 11.442 6.73648 11.442C7.0063 11.442 7.22503 11.6547 7.22503 11.9169ZM12.9546 11.9169C12.9546 12.1792 12.7359 12.3919 12.466 12.3919C12.1962 12.3919 11.9775 12.1792 11.9775 11.9169C11.9775 11.6547 12.1962 11.442 12.466 11.442C12.7359 11.442 12.9546 11.6547 12.9546 11.9169Z" fill="white"/>
</svg>