<svg width="10" height="14" viewBox="0 0 10 14" fill="none" xmlns="http://www.w3.org/2000/svg">
<path d="M5.01016 5.80005C4.54071 5.80005 4.16016 6.18061 4.16016 6.65005V10.25C4.16016 10.7195 4.54071 11.1 5.01016 11.1C5.4796 11.1 5.86016 10.7195 5.86016 10.25V6.65005C5.86016 6.18061 5.4796 5.80005 5.01016 5.80005Z" fill="#EAEBEC"/>
<path fill-rule="evenodd" clip-rule="evenodd" d="M2.14286 13.5C1.35714 13.5 0.714286 12.85 0.714286 12.0556V4.11111C0.714286 3.71224 1.03408 3.38889 1.42857 3.38889H8.57143C8.96592 3.38889 9.28571 3.71224 9.28571 4.11111V12.0556C9.28571 12.85 8.64286 13.5 7.85714 13.5H2.14286ZM7.85714 4.83333H2.14286V12.0556H7.85714V4.83333Z" fill="#EAEBEC"/>
<path d="M7.29079 1.01069C7.42475 1.14613 7.60643 1.22222 7.79587 1.22222H9.28571C9.6802 1.22222 10 1.54557 10 1.94444C10 2.34332 9.6802 2.66667 9.28571 2.66667H0.714286C0.319797 2.66667 0 2.34332 0 1.94444C0 1.54557 0.319797 1.22222 0.714286 1.22222H2.20413C2.39357 1.22222 2.57525 1.14613 2.70921 1.01069L3.00508 0.711534C3.13903 0.576091 3.32071 0.5 3.51015 0.5H6.48985C6.67929 0.5 6.86097 0.576091 6.99492 0.711534L7.29079 1.01069Z" fill="#EAEBEC"/>
</svg>